<svg width="858" height="321" viewBox="0 0 858 321" fill="none" xmlns="http://www.w3.org/2000/svg">
<path d="M7.73434 38.8599H59.2967V130.641H98.2263V127.289L69.867 124.196V38.8599H121.429V258H69.867V177.047H30.9374V180.399L59.2967 183.75V258H7.73434V38.8599ZM284.421 258H231.312L225.382 231.445H185.937L179.749 258H126.64L178.976 38.8599H232.085L284.421 258ZM203.21 158.485L197.023 185.039H215.07L190.835 77.2738H187.484L203.21 158.485ZM345.085 262.125C324.804 262.125 310.281 259.117 301.515 253.102C292.749 247.086 288.367 237.203 288.367 223.453V73.4067C288.367 59.6567 292.749 49.7739 301.515 43.7583C310.281 37.7427 324.804 34.7349 345.085 34.7349C365.366 34.7349 379.89 37.7427 388.655 43.7583C397.593 49.7739 402.062 59.6567 402.062 73.4067V121.875H350.499V80.6254C350.499 78.2191 350.07 76.5004 349.21 75.4692C348.351 74.266 346.976 73.6645 345.085 73.6645C343.195 73.6645 341.82 74.266 340.96 75.4692C340.273 76.5004 339.929 78.2191 339.929 80.6254V219.328C339.929 221.734 340.273 223.539 340.96 224.742C341.82 225.774 343.195 226.289 345.085 226.289C346.976 226.289 348.351 225.774 349.21 224.742C350.07 223.539 350.499 221.734 350.499 219.328V178.078H402.062V223.453C402.062 237.203 397.593 247.086 388.655 253.102C379.89 259.117 365.366 262.125 345.085 262.125ZM413.587 38.8599H465.149V128.836L480.36 38.8599H536.563L500.985 148.688L536.563 258H480.36L457.157 160.031H453.805L465.149 210.305V258H413.587V38.8599Z" fill="#FFFFF1"/>
<path d="M536.667 38.3336H611.559L661.605 126.199L736.497 257.686H661.605L611.559 169.82L536.667 38.3336Z" fill="#FFFFF1"/>
<path fill-rule="evenodd" clip-rule="evenodd" d="M611.559 257.686H536.667L611.559 169.82V257.686Z" fill="#FFFFF1"/>
<path fill-rule="evenodd" clip-rule="evenodd" d="M661.605 38.3336H736.497L661.605 126.199V38.3336Z" fill="#FFFFF1"/>
<path d="M755.936 224.536V206.81H759.58C760.171 206.81 760.696 206.449 761.155 205.727C761.615 205.005 761.845 204.053 761.845 202.871V195.682C761.845 194.501 761.615 193.549 761.155 192.826C760.696 192.104 760.171 191.743 759.58 191.743C758.07 191.743 757.315 192.629 757.315 194.402V203.068H737.619V187.213C737.619 181.961 739.294 178.186 742.642 175.888C746.056 173.591 751.636 172.442 759.383 172.442C767.327 172.442 773.005 173.525 776.419 175.691C779.833 177.858 781.54 181.469 781.54 186.524V200.508C781.54 205.3 780.555 208.78 778.586 210.946C776.616 213.113 773.366 214.327 768.837 214.59V214.688C773.695 214.688 777.174 215.771 779.275 217.938C781.442 220.039 782.525 223.551 782.525 228.475V245.216C782.525 250.271 780.785 253.882 777.306 256.048C773.826 258.215 768.082 259.298 760.072 259.298C752.063 259.298 746.318 258.149 742.839 255.851C739.359 253.554 737.619 249.779 737.619 244.527V228.672H757.315V237.338C757.315 238.257 757.512 238.946 757.906 239.406C758.365 239.8 759.087 239.997 760.072 239.997C761.057 239.997 761.746 239.701 762.14 239.11C762.6 238.52 762.829 237.502 762.829 236.058V228.475C762.829 227.228 762.534 226.276 761.943 225.619C761.418 224.897 760.63 224.536 759.58 224.536H755.936ZM786.989 237.338H807.373V257.722H786.989V237.338ZM833.43 259.298C825.683 259.298 820.136 258.149 816.788 255.851C813.44 253.554 811.765 249.779 811.765 244.527V187.213C811.765 181.961 813.44 178.186 816.788 175.888C820.136 173.591 825.683 172.442 833.43 172.442C841.177 172.442 846.725 173.591 850.073 175.888C853.487 178.186 855.194 181.961 855.194 187.213V244.527C855.194 249.779 853.487 253.554 850.073 255.851C846.725 258.149 841.177 259.298 833.43 259.298ZM831.461 243.837C831.461 244.756 831.592 245.446 831.855 245.905C832.183 246.299 832.708 246.496 833.43 246.496C834.152 246.496 834.678 246.299 835.006 245.905C835.334 245.446 835.498 244.756 835.498 243.837V187.903C835.498 186.983 835.334 186.327 835.006 185.933C834.678 185.473 834.152 185.244 833.43 185.244C832.708 185.244 832.183 185.473 831.855 185.933C831.592 186.327 831.461 186.983 831.461 187.903V243.837Z" fill="#FFFFF1"/>
</svg>
