<svg width="132" height="49" viewBox="0 0 132 49" fill="none" xmlns="http://www.w3.org/2000/svg">
<path d="M1.17893 5.59701H9.03844V19.5869H14.9724V19.0761L10.6496 18.6045V5.59701H18.5092V38.9999H10.6496V26.6605H4.71571V27.1714L9.03844 27.6822V38.9999H1.17893V5.59701ZM43.3535 38.9999H35.2582L34.3544 34.9523H28.3418L27.3987 38.9999H19.3034L27.2808 5.59701H35.3761L43.3535 38.9999ZM30.9748 23.8311L30.0316 27.8787H32.7825L29.0885 11.4523H28.5776L30.9748 23.8311ZM52.6004 39.6287C49.509 39.6287 47.2952 39.1702 45.9591 38.2533C44.623 37.3363 43.9549 35.8299 43.9549 33.7341V10.8629C43.9549 8.76702 44.623 7.26061 45.9591 6.34367C47.2952 5.42672 49.509 4.96825 52.6004 4.96825C55.6918 4.96825 57.9056 5.42672 59.2417 6.34367C60.604 7.26061 61.2852 8.76702 61.2852 10.8629V18.2508H53.4256V11.9632C53.4256 11.5964 53.3602 11.3345 53.2292 11.1773C53.0982 10.9939 52.8886 10.9022 52.6004 10.9022C52.3122 10.9022 52.1026 10.9939 51.9716 11.1773C51.8668 11.3345 51.8144 11.5964 51.8144 11.9632V33.1053C51.8144 33.4721 51.8668 33.7472 51.9716 33.9306C52.1026 34.0877 52.3122 34.1663 52.6004 34.1663C52.8886 34.1663 53.0982 34.0877 53.2292 33.9306C53.3602 33.7472 53.4256 33.4721 53.4256 33.1053V26.8177H61.2852V33.7341C61.2852 35.8299 60.604 37.3363 59.2417 38.2533C57.9056 39.1702 55.6918 39.6287 52.6004 39.6287ZM63.0419 5.59701H70.9014V19.3119L73.2199 5.59701H81.7868L76.3638 22.3378L81.7868 38.9999H73.2199L69.6832 24.0669H69.1723L70.9014 31.7299V38.9999H63.0419V5.59701Z" fill="#FFFFF1"/>
<path d="M81.8026 5.84302H93.2182L100.847 19.2361L112.262 39.2782H100.847L93.2182 25.8851L81.8026 5.84302Z" fill="#FFFFF1"/>
<path fill-rule="evenodd" clip-rule="evenodd" d="M93.2182 39.2782H81.8026L93.2182 25.8851V39.2782Z" fill="#FFFFF1"/>
<path fill-rule="evenodd" clip-rule="evenodd" d="M100.847 5.84302H112.262L100.847 19.2361V5.84302Z" fill="#FFFFF1"/>
<path d="M115.225 34.2875V31.5856H115.781C115.871 31.5856 115.951 31.5305 116.021 31.4205C116.091 31.3104 116.126 31.1653 116.126 30.9851V29.8894C116.126 29.7093 116.091 29.5642 116.021 29.4541C115.951 29.344 115.871 29.289 115.781 29.289C115.55 29.289 115.435 29.4241 115.435 29.6942V31.0152H112.433V28.5985C112.433 27.7979 112.688 27.2225 113.199 26.8723C113.719 26.522 114.57 26.3469 115.751 26.3469C116.961 26.3469 117.827 26.512 118.347 26.8422C118.868 27.1725 119.128 27.7229 119.128 28.4934V30.6249C119.128 31.3554 118.978 31.8858 118.678 32.216C118.377 32.5462 117.882 32.7314 117.192 32.7714V32.7864C117.932 32.7864 118.462 32.9515 118.783 33.2818C119.113 33.602 119.278 34.1374 119.278 34.8879V37.4397C119.278 38.2102 119.013 38.7606 118.483 39.0908C117.952 39.4211 117.077 39.5862 115.856 39.5862C114.635 39.5862 113.759 39.411 113.229 39.0608C112.698 38.7106 112.433 38.1352 112.433 37.3346V34.9179H115.435V36.2388C115.435 36.3789 115.465 36.484 115.525 36.554C115.595 36.6141 115.706 36.6441 115.856 36.6441C116.006 36.6441 116.111 36.5991 116.171 36.509C116.241 36.419 116.276 36.2638 116.276 36.0437V34.8879C116.276 34.6977 116.231 34.5526 116.141 34.4526C116.061 34.3425 115.941 34.2875 115.781 34.2875H115.225ZM119.958 36.2388H123.066V39.346H119.958V36.2388ZM127.037 39.5862C125.857 39.5862 125.011 39.411 124.501 39.0608C123.99 38.7106 123.735 38.1352 123.735 37.3346V28.5985C123.735 27.7979 123.99 27.2225 124.501 26.8723C125.011 26.522 125.857 26.3469 127.037 26.3469C128.218 26.3469 129.064 26.522 129.574 26.8723C130.095 27.2225 130.355 27.7979 130.355 28.5985V37.3346C130.355 38.1352 130.095 38.7106 129.574 39.0608C129.064 39.411 128.218 39.5862 127.037 39.5862ZM126.737 37.2295C126.737 37.3696 126.757 37.4747 126.797 37.5447C126.847 37.6048 126.927 37.6348 127.037 37.6348C127.148 37.6348 127.228 37.6048 127.278 37.5447C127.328 37.4747 127.353 37.3696 127.353 37.2295V28.7035C127.353 28.5635 127.328 28.4634 127.278 28.4033C127.228 28.3333 127.148 28.2983 127.037 28.2983C126.927 28.2983 126.847 28.3333 126.797 28.4033C126.757 28.4634 126.737 28.5635 126.737 28.7035V37.2295Z" fill="#FFFFF1"/>
</svg>
