<svg width="206" height="45" viewBox="0 0 206 45" fill="none" xmlns="http://www.w3.org/2000/svg">
<mask id="path-1-outside-1_75_605" maskUnits="userSpaceOnUse" x="0" y="0" width="206" height="45" fill="black">
<rect fill="white" width="206" height="45"/>
<path d="M2 36.9492V42.998H9.93945V43.998H1V36.9492H2ZM204.999 43.998H196.059V42.998H203.999V36.9492H204.999V43.998ZM204.999 8.04883H203.999V2H196.059V1H204.999V8.04883ZM9.93945 2H2V8.04883H1V1H9.93945V2Z"/>
</mask>
<path d="M2 36.9492V42.998H9.93945V43.998H1V36.9492H2ZM204.999 43.998H196.059V42.998H203.999V36.9492H204.999V43.998ZM204.999 8.04883H203.999V2H196.059V1H204.999V8.04883ZM9.93945 2H2V8.04883H1V1H9.93945V2Z" fill="#FFFFF1"/>
<path d="M2 36.9492H3V35.9492H2V36.9492ZM2 42.998H1V43.998H2V42.998ZM9.93945 42.998H10.9395V41.998H9.93945V42.998ZM9.93945 43.998V44.998H10.9395V43.998H9.93945ZM1 43.998H0V44.998H1V43.998ZM1 36.9492V35.9492H0V36.9492H1ZM204.999 43.998V44.998H205.999V43.998H204.999ZM196.059 43.998H195.059V44.998H196.059V43.998ZM196.059 42.998V41.998H195.059V42.998H196.059ZM203.999 42.998V43.998H204.999V42.998H203.999ZM203.999 36.9492V35.9492H202.999V36.9492H203.999ZM204.999 36.9492H205.999V35.9492H204.999V36.9492ZM204.999 8.04883V9.04883H205.999V8.04883H204.999ZM203.999 8.04883H202.999V9.04883H203.999V8.04883ZM203.999 2H204.999V1H203.999V2ZM196.059 2H195.059V3H196.059V2ZM196.059 1V0H195.059V1H196.059ZM204.999 1H205.999V0H204.999V1ZM9.93945 2V3H10.9395V2H9.93945ZM2 2V1H1V2H2ZM2 8.04883V9.04883H3V8.04883H2ZM1 8.04883H0V9.04883H1V8.04883ZM1 1V0H0V1H1ZM9.93945 1H10.9395V0H9.93945V1ZM2 36.9492H1V42.998H2H3V36.9492H2ZM2 42.998V43.998H9.93945V42.998V41.998H2V42.998ZM9.93945 42.998H8.93945V43.998H9.93945H10.9395V42.998H9.93945ZM9.93945 43.998V42.998H1V43.998V44.998H9.93945V43.998ZM1 43.998H2V36.9492H1H0V43.998H1ZM1 36.9492V37.9492H2V36.9492V35.9492H1V36.9492ZM204.999 43.998V42.998H196.059V43.998V44.998H204.999V43.998ZM196.059 43.998H197.059V42.998H196.059H195.059V43.998H196.059ZM196.059 42.998V43.998H203.999V42.998V41.998H196.059V42.998ZM203.999 42.998H204.999V36.9492H203.999H202.999V42.998H203.999ZM203.999 36.9492V37.9492H204.999V36.9492V35.9492H203.999V36.9492ZM204.999 36.9492H203.999V43.998H204.999H205.999V36.9492H204.999ZM204.999 8.04883V7.04883H203.999V8.04883V9.04883H204.999V8.04883ZM203.999 8.04883H204.999V2H203.999H202.999V8.04883H203.999ZM203.999 2V1H196.059V2V3H203.999V2ZM196.059 2H197.059V1H196.059H195.059V2H196.059ZM196.059 1V2H204.999V1V0H196.059V1ZM204.999 1H203.999V8.04883H204.999H205.999V1H204.999ZM9.93945 2V1H2V2V3H9.93945V2ZM2 2H1V8.04883H2H3V2H2ZM2 8.04883V7.04883H1V8.04883V9.04883H2V8.04883ZM1 8.04883H2V1H1H0V8.04883H1ZM1 1V2H9.93945V1V0H1V1ZM9.93945 1H8.93945V2H9.93945H10.9395V1H9.93945Z" fill="#FFFFF1" mask="url(#path-1-outside-1_75_605)"/>
<path d="M26.0319 23.121V29H23.2016V14.5408H26.0319V20.4H30.6795V14.5408H33.5098V29H30.6795V23.121H26.0319ZM42.0307 23.2898L40.3227 18.6323L38.5748 23.2898H42.0307ZM37.6016 25.9711L36.4794 29H33.5499L39.1608 14.5408H41.6037L47.1352 29H44.1063L42.9642 25.9711H37.6016ZM60.5818 18.8309H57.1259C56.7154 18.2748 56.2255 17.8577 55.6561 17.5796C55.0934 17.3016 54.4512 17.1625 53.7296 17.1625C53.147 17.1625 52.5942 17.2718 52.0711 17.4902C51.5481 17.7087 51.0847 18.0265 50.6808 18.4436C50.2505 18.8806 49.9162 19.387 49.6778 19.963C49.4461 20.5324 49.3302 21.1183 49.3302 21.7208C49.3302 23.0449 49.754 24.1571 50.6014 25.0575C51.4554 25.9513 52.4982 26.3981 53.7296 26.3981C54.438 26.3981 55.0735 26.2657 55.6363 26.0009C56.2056 25.7361 56.6658 25.3521 57.0167 24.8489H60.4825C59.8072 26.3253 58.9068 27.4343 57.7813 28.1757C56.6558 28.9172 55.3119 29.288 53.7494 29.288C52.6637 29.288 51.6607 29.0794 50.7404 28.6624C49.8268 28.2453 49.0058 27.6262 48.2776 26.8053C47.6619 26.1234 47.1951 25.3488 46.8773 24.4815C46.5596 23.6076 46.4007 22.6741 46.4007 21.681C46.4007 20.6747 46.5927 19.7214 46.9767 18.821C47.3606 17.914 47.9234 17.0897 48.6649 16.3482C49.3667 15.6597 50.1446 15.14 50.9986 14.7891C51.8593 14.4316 52.7828 14.2528 53.7693 14.2528C55.3516 14.2528 56.7022 14.6302 57.821 15.3849C58.9465 16.1397 59.8668 17.2883 60.5818 18.8309ZM64.7531 21.8201L69.1226 14.5408H72.2707L67.633 21.7208L72.2707 29H69.1226L64.7531 21.8201ZM64.7134 29H61.8831V14.5408H64.7134V29ZM79.3219 23.2898L77.6138 18.6323L75.866 23.2898H79.3219ZM74.8928 25.9711L73.7706 29H70.8411L76.4519 14.5408H78.8949L84.4263 29H81.3975L80.2554 25.9711L74.8928 25.9711ZM91.0108 14.5408V17.0831H88.2799V29H85.4595V17.0831H82.7286V14.5408H91.0108ZM94.7551 23.121V29H91.9249V14.5408H94.7551V20.4H99.4027V14.5408H102.233V29H99.4027V23.121H94.7551ZM106.563 21.6413C106.563 22.2636 106.666 22.8429 106.871 23.3792C107.076 23.9155 107.381 24.4054 107.785 24.8489C108.228 25.3322 108.731 25.7063 109.294 25.9711C109.857 26.2293 110.44 26.3584 111.042 26.3584C112.306 26.3584 113.366 25.9082 114.22 25.0078C115.08 24.1074 115.511 22.9853 115.511 21.6413C115.511 20.4099 115.077 19.3605 114.21 18.4933C113.349 17.6193 112.313 17.1824 111.102 17.1824C109.837 17.1824 108.765 17.616 107.884 18.4833C107.003 19.3506 106.563 20.4033 106.563 21.6413ZM103.594 21.7406C103.594 20.9462 103.7 20.198 103.912 19.4963C104.124 18.7879 104.438 18.1258 104.855 17.5101C105.57 16.4707 106.467 15.6696 107.546 15.1069C108.625 14.5375 109.804 14.2528 111.082 14.2528C112.042 14.2528 112.965 14.4382 113.852 14.8089C114.746 15.1797 115.544 15.7126 116.246 16.4078C116.967 17.1294 117.517 17.9404 117.894 18.8408C118.272 19.7412 118.46 20.688 118.46 21.681C118.46 22.7138 118.282 23.6837 117.924 24.5907C117.573 25.4978 117.053 26.3021 116.365 27.0039C115.67 27.7388 114.859 28.3048 113.932 28.7021C113.012 29.0927 112.048 29.288 111.042 29.288C109.963 29.288 108.97 29.096 108.063 28.712C107.156 28.328 106.351 27.7587 105.65 27.0039C104.974 26.2889 104.461 25.4878 104.11 24.6007C103.766 23.7069 103.594 22.7536 103.594 21.7406ZM122.612 29H119.831V14.5408H122.512L128.491 23.7764V14.5408H131.261V29H128.64L122.612 19.4863V29ZM137.926 24.5113L140.508 24.5014V24.7099C140.508 25.319 140.667 25.8089 140.984 26.1797C141.302 26.5438 141.726 26.7259 142.256 26.7259C142.825 26.7259 143.275 26.557 143.606 26.2194C143.937 25.8751 144.103 25.4117 144.103 24.8291C144.103 23.8956 143.434 23.2269 142.097 22.8231C141.925 22.7701 141.789 22.7271 141.689 22.694C140.564 22.3431 139.73 21.8465 139.187 21.2044C138.644 20.5555 138.373 19.7379 138.373 18.7515C138.373 17.3943 138.747 16.3052 139.495 15.4842C140.25 14.6633 141.253 14.2528 142.504 14.2528C143.676 14.2528 144.609 14.6203 145.304 15.3551C145.999 16.0834 146.387 17.1063 146.466 18.4237H143.904V18.3046C143.904 17.8411 143.765 17.4671 143.487 17.1824C143.209 16.8977 142.845 16.7554 142.395 16.7554C141.931 16.7554 141.564 16.901 141.292 17.1923C141.027 17.4836 140.895 17.8809 140.895 18.384C140.895 18.5959 140.922 18.7846 140.974 18.9501C141.034 19.109 141.123 19.2546 141.243 19.387C141.514 19.6849 142.097 19.9597 142.99 20.2113C143.388 20.3172 143.692 20.4066 143.904 20.4794C144.897 20.8171 145.629 21.3004 146.099 21.9293C146.575 22.5582 146.814 23.3626 146.814 24.3425C146.814 25.8321 146.4 27.0304 145.572 27.9374C144.745 28.8378 143.646 29.288 142.275 29.288C140.984 29.288 139.942 28.851 139.147 27.9771C138.353 27.1032 137.946 25.9479 137.926 24.5113ZM155.345 14.5408V17.0831H152.614V29H149.793V17.0831H147.062V14.5408L155.345 14.5408ZM161.949 23.2898L160.241 18.6323L158.493 23.2898H161.949ZM157.52 25.9711L156.398 29H153.468L159.079 14.5408H161.522L167.053 29H164.025L162.883 25.9711H157.52ZM173.638 14.5408V17.0831H170.907V29H168.087V17.0831H165.356V14.5408H173.638ZM173.678 24.5113L176.26 24.5014V24.7099C176.26 25.319 176.419 25.8089 176.737 26.1797C177.055 26.5438 177.478 26.7259 178.008 26.7259C178.577 26.7259 179.027 26.557 179.358 26.2194C179.689 25.8751 179.855 25.4117 179.855 24.8291C179.855 23.8956 179.186 23.2269 177.849 22.8231C177.677 22.7701 177.541 22.7271 177.442 22.694C176.316 22.3431 175.482 21.8465 174.939 21.2044C174.396 20.5555 174.125 19.7379 174.125 18.7515C174.125 17.3943 174.499 16.3052 175.247 15.4842C176.002 14.6633 177.005 14.2528 178.256 14.2528C179.428 14.2528 180.361 14.6203 181.057 15.3551C181.752 16.0834 182.139 17.1063 182.219 18.4237H179.656V18.3046C179.656 17.8411 179.517 17.4671 179.239 17.1824C178.961 16.8977 178.597 16.7554 178.147 16.7554C177.683 16.7554 177.316 16.901 177.045 17.1923C176.78 17.4836 176.647 17.8809 176.647 18.384C176.647 18.5959 176.674 18.7846 176.727 18.9501C176.786 19.109 176.876 19.2546 176.995 19.387C177.266 19.6849 177.849 19.9597 178.743 20.2113C179.14 20.3172 179.445 20.4066 179.656 20.4794C180.649 20.8171 181.381 21.3004 181.851 21.9293C182.328 22.5582 182.566 23.3626 182.566 24.3425C182.566 25.8321 182.152 27.0304 181.325 27.9374C180.497 28.8378 179.398 29.288 178.028 29.288C176.737 29.288 175.694 28.851 174.9 27.9771C174.105 27.1032 173.698 25.9479 173.678 24.5113Z" fill="#FFFFF1"/>
</svg>
