<svg width="99" height="89" viewBox="0 0 99 89" fill="none" xmlns="http://www.w3.org/2000/svg">
    <path d="M49.8717 51.9706C63.9499 51.9706 75.3626 40.558 75.3626 26.4797C75.3626 12.4014 63.9499 0.98877 49.8717 0.98877C35.7934 0.98877 24.3807 12.4014 24.3807 26.4797C24.3807 40.558 35.7934 51.9706 49.8717 51.9706Z" fill="#FEFDE0"/>
    <path d="M49.826 8.10353C49.9562 8.22618 50.0591 8.31913 50.1574 8.4174C53.709 11.9691 57.2569 15.5253 60.8192 19.0663C61.1194 19.3649 61.079 19.5204 60.8017 19.7908C59.6429 20.9214 58.4926 22.0603 57.3704 23.2274C57.0474 23.5634 56.8836 23.5047 56.5887 23.2061C54.4975 21.0897 52.3758 19.0023 50.293 16.8768C49.9113 16.4875 49.7223 16.5073 49.3521 16.8844C47.2837 18.9909 45.1772 21.0585 43.1066 23.1627C42.7584 23.5162 42.5725 23.5322 42.2229 23.1672C41.1205 22.0154 39.9861 20.8924 38.8426 19.7809C38.5531 19.4998 38.5508 19.3451 38.8396 19.0579C42.4011 15.5162 45.9497 11.9607 49.5022 8.40902C49.6005 8.31227 49.7025 8.22009 49.826 8.10353Z" fill="#3C3222"/>
    <path d="M42.6723 29.5004C42.8377 29.6588 42.9748 29.7853 43.1073 29.9171C45.1955 32.0037 47.2951 34.079 49.3612 36.1885C49.7482 36.5831 49.9372 36.5466 50.3021 36.1748C52.3705 34.0691 54.4769 31.9999 56.5468 29.8942C56.8988 29.5362 57.0862 29.5331 57.4329 29.8942C58.5375 31.0446 59.6704 32.1683 60.8162 33.2775C61.1125 33.5647 61.0935 33.7217 60.8108 34.0036C57.25 37.5468 53.6976 41.0985 50.1558 44.6608C49.88 44.9381 49.7444 44.9054 49.4885 44.6479C45.9444 41.0878 42.3912 37.5362 38.8342 33.9891C38.5981 33.7537 38.4967 33.6074 38.7977 33.3164C39.996 32.1584 41.1639 30.9692 42.344 29.7929C42.4392 29.6977 42.5459 29.6116 42.6723 29.5004Z" fill="#3C3222"/>
    <path d="M35.5446 30.6782C35.4304 30.5707 35.3435 30.493 35.262 30.4115C34.0682 29.2192 32.8828 28.0186 31.6768 26.8385C31.43 26.597 31.43 26.4652 31.6768 26.2237C32.8828 25.0436 34.0773 23.8521 35.2551 22.6446C35.5149 22.3788 35.6475 22.4435 35.8707 22.6705C37.0371 23.8567 38.2149 25.0307 39.3972 26.2009C39.6052 26.4066 39.737 26.5391 39.4513 26.8172C38.2255 28.0102 37.0249 29.2299 35.8143 30.4389C35.7351 30.5174 35.6467 30.5875 35.5446 30.6782Z" fill="#3C3222"/>
    <path d="M49.8214 30.7223C49.6865 30.5989 49.5799 30.509 49.4816 30.4108C48.3031 29.2345 47.1367 28.046 45.9414 26.8865C45.6336 26.5879 45.69 26.4233 45.965 26.1552C47.139 25.0078 48.2992 23.8468 49.4473 22.6736C49.7124 22.4031 49.8762 22.3315 50.1787 22.6439C51.3382 23.8392 52.5206 25.0116 53.7083 26.1788C53.9558 26.4218 54.029 26.5764 53.7387 26.8591C52.5289 28.0376 51.3443 29.2413 50.1482 30.4344C50.0507 30.5304 49.9418 30.6157 49.8214 30.7223Z" fill="#3C3222"/>
    <path d="M68.2524 26.533C68.132 26.661 68.0399 26.7639 67.9423 26.8614C66.7668 28.0384 65.5791 29.2032 64.4211 30.3986C64.1355 30.6934 63.993 30.6119 63.7538 30.3689C62.6042 29.1994 61.4492 28.0354 60.273 26.8926C59.9804 26.6084 59.9842 26.4538 60.2753 26.1719C61.4515 25.0292 62.6072 23.8658 63.7553 22.6957C63.9983 22.4481 64.1416 22.381 64.4227 22.6713C65.5807 23.8651 66.7676 25.0315 67.9439 26.2077C68.0414 26.3052 68.1336 26.4081 68.2524 26.533Z" fill="#3C3222"/>
    <path d="M72.9484 37.4816C87.0266 37.4816 98.4393 48.8942 98.4393 62.9725C98.4393 77.0508 87.0266 88.4634 72.9484 88.4634C58.8701 88.4634 47.4575 77.0508 47.4575 62.9725C47.4575 48.8942 58.8701 37.4816 72.9484 37.4816Z" fill="#FEFDE0"/>
    <path d="M84.7835 69.1616C83.2598 73.6069 80.1005 76.121 75.3923 76.588C73.2569 76.7998 71.1124 76.6169 69.3754 76.6756C67.0625 76.6756 65.1533 76.6527 63.2442 76.6893C62.7055 76.7 62.5928 76.5308 62.6126 76.0318C62.6515 75.0346 62.624 74.0336 62.624 73.0348C62.624 70.8803 62.6111 68.7251 62.6301 66.5706H62.6362V65.3243H60.2578C60.126 65.287 60.065 65.1872 60.0681 64.9647C60.0864 63.9118 60.0833 62.8598 60.0688 61.8069C60.0666 61.6088 60.1161 61.5037 60.2387 61.4618H62.6355V49.501C62.6705 49.338 62.7726 49.2527 63.0628 49.2534C66.8644 49.2725 70.6659 49.2237 74.466 49.2824C79.4765 49.3616 83.2392 52.1072 84.8124 56.8603C86.1647 60.946 86.1784 65.0889 84.7835 69.1616ZM80.6917 59.219C80.035 55.8692 77.8378 53.8168 74.4088 53.349C72.1728 53.0428 69.9209 53.2409 67.6765 53.1875C67.3535 53.1799 67.352 53.3681 67.3535 53.5997C67.3581 54.8483 67.3558 56.097 67.3558 57.3456C67.355 58.3009 67.3428 60.2109 67.3428 60.2109V61.4565H74.4797C74.6823 61.5006 74.7684 61.6309 74.7562 61.9562C74.7212 62.9177 74.725 63.8829 74.7555 64.8443C74.7669 65.2451 74.6518 65.3563 74.2504 65.3532C72.3633 65.3349 70.4755 65.3548 68.5892 65.3395C68.5313 65.3388 68.4726 65.3372 68.4147 65.3372C68.2555 65.3365 68.097 65.3342 67.9371 65.3319C67.8769 65.3304 67.8228 65.3327 67.7733 65.3372H67.3436V65.9216C67.3466 66.1417 67.3489 66.3627 67.3512 66.5821C67.3702 68.4486 67.3649 70.315 67.3466 72.1815C67.3413 72.6097 67.4304 72.7727 67.8959 72.7575C69.9612 72.6889 72.0349 72.8794 74.0949 72.6219C78.0679 72.1229 80.2818 69.9158 80.8334 65.9261C81.1427 63.6841 81.1274 61.4427 80.6917 59.219Z" fill="#3C3222"/>
    <path d="M26.7956 89C41.1702 89 52.8232 77.347 52.8232 62.9724C52.8232 48.5978 41.1702 36.9448 26.7956 36.9448C12.4209 36.9448 0.768005 48.5978 0.768005 62.9724C0.768005 77.347 12.4209 89 26.7956 89Z" fill="#FEFDE0"/>
    <path d="M34.6147 63.4562C34.9088 63.6375 35.1826 63.7946 35.444 63.9696C37.0744 65.0625 37.8717 66.5615 37.622 68.5427C37.4439 69.9554 36.9748 71.2668 36.1067 72.4103C35.2176 73.581 34.0026 74.2041 32.5744 74.4507C31.2917 74.6716 30.0097 74.5977 28.7294 74.4304C28.2665 74.3698 27.8068 74.2889 27.3471 74.2056C27.2086 74.1808 27.1627 74.215 27.1293 74.3519C26.7769 75.7878 26.4129 77.2222 26.0621 78.6582C26.0169 78.841 25.9617 78.8915 25.7672 78.8402C24.9761 78.6302 24.1812 78.4349 23.3854 78.2451C23.2135 78.2039 23.1559 78.1619 23.2065 77.9643C23.5682 76.5603 23.9097 75.1508 24.2675 73.7451C24.3095 73.581 24.2862 73.5211 24.1158 73.4799C23.4951 73.329 22.8774 73.1664 22.2606 72.9984C22.1042 72.9556 22.0412 72.9828 22 73.1524C21.6515 74.5751 21.2898 75.994 20.9421 77.4167C20.9001 77.5878 20.8456 77.6119 20.6823 77.5692C19.8764 77.3584 19.069 77.1561 18.2584 76.964C18.0896 76.9243 18.0585 76.8683 18.1005 76.7034C18.4615 75.2768 18.81 73.847 19.1732 72.4204C19.2191 72.24 19.1919 72.1731 19.0068 72.1264C17.2371 71.6861 15.4706 71.2342 13.7009 70.7947C13.5305 70.7527 13.5189 70.706 13.5842 70.5566C14.0074 69.5975 14.4251 68.6361 14.8335 67.6707C14.8996 67.5144 14.9673 67.4965 15.1213 67.537C15.7809 67.7096 16.4328 67.9166 17.1072 68.0247C17.6992 68.1196 18.1558 67.8178 18.3036 67.2336C18.8193 65.187 19.3304 63.1389 19.8414 61.0907C20.3657 58.9874 20.8768 56.8801 21.4189 54.7806C21.5761 54.1716 21.3598 53.326 20.48 53.0016C19.9667 52.8126 19.4315 52.7014 18.9017 52.5715C18.6785 52.517 18.4552 52.461 18.2304 52.4144C18.1301 52.3934 18.0834 52.3731 18.1153 52.2487C18.3502 51.3308 18.5805 50.4113 18.8022 49.4896C18.8457 49.3099 18.9492 49.3729 19.0456 49.3962C20.0359 49.6397 21.0253 49.8847 22.0148 50.1305C22.795 50.3242 23.5768 50.514 24.3546 50.7163C24.5203 50.759 24.5849 50.7334 24.6277 50.5568C24.9699 49.1481 25.3277 47.7425 25.6692 46.333C25.7151 46.1439 25.7773 46.1027 25.9648 46.1517C26.7489 46.3578 27.5361 46.557 28.3264 46.7406C28.5279 46.7872 28.5691 46.8495 28.5178 47.0494C28.1654 48.4262 27.8286 49.8077 27.4786 51.1853C27.4397 51.3386 27.456 51.3922 27.6209 51.428C28.2518 51.5657 28.8803 51.7166 29.5065 51.8753C29.6768 51.9181 29.7258 51.8644 29.7639 51.708C30.0953 50.3553 30.4337 49.0042 30.7705 47.653C30.8405 47.3722 30.8397 47.3706 31.1182 47.4399C31.9054 47.6367 32.6903 47.8397 33.4798 48.0272C33.651 48.0676 33.6766 48.1244 33.6346 48.2885C33.2745 49.7081 32.9275 51.1309 32.5651 52.5497C32.5215 52.7193 32.5666 52.7722 32.7167 52.8243C33.9567 53.2552 35.1507 53.7811 36.2055 54.5792C37.1732 55.3111 37.9518 56.2057 38.1572 57.4293C38.4909 59.4183 38.07 61.2051 36.4801 62.5819C36.0118 62.9872 35.4416 63.2167 34.8504 63.3878C34.7804 63.4103 34.7112 63.429 34.6147 63.4562ZM28.2035 70.4765C28.6633 70.4719 29.179 70.4376 29.6838 70.3101C30.6912 70.0565 31.4177 69.4917 31.7008 68.4564C31.9863 67.4117 31.7218 66.5133 30.9455 65.7618C30.4267 65.2601 29.8114 64.9085 29.1588 64.616C27.7197 63.972 26.1857 63.653 24.6611 63.3014C24.5032 63.2649 24.5164 63.3629 24.4946 63.4485C24.0015 65.4188 23.5106 67.3899 23.0143 69.3595C22.9786 69.5019 23.0221 69.5454 23.1544 69.5773C23.6429 69.6955 24.1267 69.8301 24.6152 69.9484C25.775 70.2307 26.9449 70.4516 28.2035 70.4765ZM29.4948 61.1802C29.8355 61.1771 30.2221 61.1576 30.6033 61.0752C31.5842 60.8613 32.2912 60.3331 32.5728 59.3343C32.863 58.3044 32.6172 57.4207 31.8167 56.6981C31.3959 56.3185 30.9105 56.0423 30.3971 55.8137C29.2482 55.3018 28.0246 55.0482 26.8073 54.7705C26.6789 54.741 26.647 54.797 26.6213 54.9035C26.5179 55.336 26.4082 55.767 26.3009 56.1987C25.9656 57.5421 25.6319 58.8855 25.292 60.2281C25.257 60.3665 25.2818 60.4365 25.4296 60.4638C25.5774 60.491 25.7221 60.5361 25.8676 60.5742C27.0429 60.8823 28.2222 61.1662 29.4948 61.1802Z" fill="#3C3222"/>
</svg>
