<svg width="100" height="90" viewBox="0 0 100 90" fill="none" xmlns="http://www.w3.org/2000/svg">
    <path fill-rule="evenodd" clip-rule="evenodd" d="M37.0282 8.49367C43.7071 -2.82447 56.3593 -2.84569 63.0031 8.51683L63.1922 8.86606L97.3609 67.5985C103.933 78.4806 97.1269 89.5479 84.4611 89.3935V89.4167H14.4278C14.2524 89.4167 14.0808 89.409 13.9093 89.3954C2.53597 89.243 -2.98107 78.934 1.84195 68.7812C1.91798 68.6172 2.00181 68.459 2.09149 68.3066L2.08369 68.3008L37.0379 8.49946L37.0282 8.49367ZM46.838 66.8402C47.6685 66.0433 48.6608 65.6459 49.655 65.5745C50.3178 65.5282 50.9807 65.6304 51.5928 65.86C52.203 66.0896 52.7644 66.4447 53.2284 66.9039C54.5775 68.2371 54.9284 70.2572 54.133 71.9513C53.6086 73.0704 52.7527 73.8229 51.7722 74.2242C51.1815 74.4692 50.544 74.5792 49.9084 74.5638C49.271 74.5483 48.6432 74.4056 48.074 74.1432C47.0953 73.6936 46.261 72.9025 45.7931 71.7892C45.2765 70.5621 45.3506 69.2887 45.9159 68.0943C46.1401 67.6197 46.452 67.1663 46.838 66.8402ZM53.439 57.7583C53.283 61.5998 46.7113 61.6037 46.5612 57.7563C45.8964 51.1769 44.1965 36.4302 44.251 30.2463C44.3056 28.3419 45.9023 27.2132 47.9434 26.7829C48.573 26.6498 49.2651 26.5842 49.9611 26.5861C50.6629 26.588 51.3569 26.6556 51.9866 26.7887C54.0959 27.2325 55.751 28.4075 55.751 30.3485L55.7413 30.5415L53.439 57.7583Z" fill="#FEFDE0"/>
</svg>
