<svg width="93" height="89" viewBox="0 0 93 89" fill="none" xmlns="http://www.w3.org/2000/svg">
    <path d="M34.1923 0C28.9865 0 24.6038 3.60965 23.6009 8.46118C22.9234 8.35926 22.2391 8.30762 21.554 8.30762C14.1291 8.30762 8.088 14.2086 8.088 21.4628C8.088 22.1038 8.13605 22.7455 8.23146 23.3806C3.97913 24.8525 1.01177 28.8537 1.01177 33.3445C1.01177 35.5936 1.74417 37.7615 3.09435 39.5653C3.08474 39.576 3.07719 39.5881 3.06758 39.5995C2.85479 39.8516 2.65436 40.1118 2.46285 40.376C2.41892 40.4364 2.37499 40.4967 2.33174 40.5578C2.15122 40.8159 1.9803 41.0801 1.81968 41.349C1.77987 41.4161 1.74143 41.4845 1.7023 41.5522C1.54512 41.8271 1.39548 42.1054 1.25957 42.3897C1.23348 42.4441 1.21083 42.499 1.18543 42.5534C1.05913 42.8269 0.942445 43.1039 0.835364 43.3855C0.81889 43.4298 0.799671 43.4727 0.783883 43.517C0.672685 43.8207 0.5759 44.1298 0.488039 44.4417C0.469506 44.5074 0.450287 44.5724 0.43244 44.6381C0.350757 44.9466 0.281429 45.2584 0.222398 45.5736C0.210042 45.6406 0.198373 45.7077 0.186704 45.7747C0.131791 46.0973 0.0871744 46.4225 0.0569723 46.7504C0.0521674 46.8007 0.0494217 46.851 0.0459897 46.9013C0.0178467 47.2507 0 47.6014 0 47.9554C0 47.9561 0 47.9561 0 47.9568C0 47.9568 0 47.9568 0 47.9574C0 47.9574 0 47.9574 0 47.9581C0 47.9581 0 47.9581 0 47.9588C0.000686413 52.3644 2.23839 56.4233 5.9258 58.8554C4.84676 60.7813 4.28184 62.9331 4.28184 65.1541C4.28184 72.4082 10.323 78.3092 17.7479 78.3092C17.9367 78.3092 18.1275 78.3052 18.3183 78.2971C19.4227 83.9962 24.3004 88.4045 30.3086 88.9417C30.3422 88.945 30.3758 88.9464 30.4095 88.949C30.7842 88.9799 31.1625 88.9993 31.5455 88.9993C38.9711 88.9993 45.0115 83.0984 45.0115 75.8442V10.5688C45.0115 4.74089 40.1579 0 34.1923 0ZM42.2851 75.8449C42.2851 81.6298 37.4672 86.3365 31.5455 86.3365C31.1913 86.3365 30.8412 86.3177 30.4953 86.2849C30.2681 86.2628 30.045 86.2245 29.8212 86.1883C29.7121 86.1709 29.6009 86.1595 29.4931 86.1394C29.189 86.0804 28.8891 86.0079 28.5939 85.9241C28.5754 85.9188 28.5555 85.9147 28.5362 85.9094C25.6821 85.0826 23.2914 83.1151 21.9556 80.5415C21.9391 80.5086 21.9233 80.4758 21.9069 80.4429C21.7812 80.1948 21.6652 79.9407 21.5595 79.6818C21.5314 79.6128 21.5074 79.5424 21.4813 79.4726C21.3927 79.2413 21.3104 79.0079 21.2383 78.7692C21.2081 78.6686 21.1848 78.5647 21.1573 78.4627C21.0996 78.2462 21.0434 78.0282 21.0001 77.8063C20.9768 77.6862 20.9624 77.5635 20.9431 77.4422C20.9095 77.2269 20.8745 77.0123 20.8546 76.7937C20.8258 76.4806 20.8052 76.1654 20.8052 75.8449C20.8052 70.0599 25.6224 65.3539 31.5448 65.3539C32.2978 65.3539 32.908 64.7578 32.908 64.0221C32.908 63.2865 32.2978 62.6904 31.5448 62.6904C24.1899 62.6904 18.1975 68.4814 18.0849 75.6403C12.028 75.8361 7.00759 71.0463 7.00759 65.1541C7.00759 63.0029 7.67135 60.9335 8.92817 59.1699C9.15126 58.8575 9.22607 58.4658 9.13409 58.0957C9.04212 57.7255 8.79226 57.411 8.447 57.2327C4.91815 55.4061 2.72575 51.8521 2.72506 47.9568C2.72506 45.5836 3.5364 43.3299 5.01836 41.4878C5.06161 41.4349 5.09799 41.3772 5.14192 41.3249C5.18928 41.2686 5.24419 41.2169 5.29224 41.1619C5.47483 40.9534 5.65879 40.7462 5.85922 40.5497C5.86059 40.5484 5.86128 40.547 5.86265 40.5457C7.89169 38.5588 10.5913 37.4651 13.4654 37.4651C15.5239 37.4651 17.5262 38.0384 19.2573 39.1227C22.3537 41.0627 24.2015 44.3652 24.2015 47.9581C24.2015 48.6937 24.8118 49.2898 25.5648 49.2898C26.3178 49.2898 26.928 48.6937 26.928 47.9581C26.928 43.4532 24.6106 39.3125 20.729 36.881C18.5579 35.5211 16.0463 34.8023 13.4654 34.8023C10.3758 34.8023 7.44895 35.8135 5.0719 37.6716C4.20702 36.3902 3.73614 34.8948 3.73614 33.3458C3.73614 29.6577 6.41247 26.4109 10.0985 25.6256C10.4582 25.5492 10.7712 25.3333 10.9661 25.0281C11.1604 24.7224 11.2201 24.3529 11.1309 24.0035C10.9195 23.1734 10.8124 22.3191 10.8124 21.4648C10.8124 15.6798 15.6303 10.9731 21.552 10.9731C22.1711 10.9731 22.7896 11.0315 23.4005 11.1361C23.7039 16.7004 28.4195 21.1402 34.1902 21.1402C34.9432 21.1402 35.5534 20.5441 35.5534 19.8085C35.5534 19.0729 34.9432 18.4767 34.1902 18.4767C29.7279 18.4767 26.0974 14.9301 26.0974 10.5708C26.0974 10.5077 26.0871 10.4474 26.0782 10.387C26.0995 10.3052 26.1166 10.2228 26.1214 10.1369C26.3548 5.94724 29.8988 2.66482 34.1902 2.66482C38.6526 2.66482 42.283 6.21144 42.283 10.5708V75.8449H42.2851Z" fill="#FEFDE0"/>
    <path d="M93 47.9568C93 44.8574 91.9093 41.9197 89.905 39.5653C91.2558 37.7622 91.9882 35.5936 91.9882 33.3445C91.9882 28.8537 89.0209 24.8525 84.7679 23.3806C84.864 22.7455 84.9113 22.1038 84.9113 21.4628C84.9113 14.2086 78.8702 8.30762 71.4453 8.30762C70.7602 8.30762 70.0759 8.35926 69.3984 8.46118C68.3962 3.60965 64.0128 0 58.8077 0C52.8421 0 47.9892 4.74089 47.9892 10.5688V75.8449C47.9892 83.099 54.0296 89 61.4545 89C67.9288 89 73.4928 84.3959 74.6817 78.2971C82.3688 78.6136 88.7182 72.592 88.7182 65.1541C88.7182 62.9325 88.1539 60.7806 87.0742 58.8554C90.7623 56.4233 93 52.3644 93 47.9568ZM84.5523 57.2327C84.2071 57.411 83.9579 57.7255 83.8659 58.0957C83.7739 58.4658 83.8488 58.8568 84.0718 59.1706C85.3287 60.9335 85.9924 63.0022 85.9924 65.1541C85.9924 71.4346 80.2924 76.4665 73.7056 75.5357C73.3308 75.4834 72.9567 75.5833 72.663 75.8113C72.3692 76.04 72.1845 76.376 72.153 76.7414C71.6869 82.122 66.9884 86.3365 61.4552 86.3365C55.5335 86.3365 50.7163 81.6298 50.7163 75.8449V10.5688C50.7163 6.20943 54.346 2.66281 58.8084 2.66281C63.0999 2.66281 66.6438 5.94522 66.8779 10.1349C66.8998 10.5373 67.1071 10.9081 67.4421 11.1428C67.7764 11.3781 68.2027 11.4526 68.5994 11.3466C69.5295 11.0972 70.4877 10.9704 71.4466 10.9704C77.3683 10.9704 82.1863 15.6771 82.1863 21.4621C82.1863 22.3164 82.0792 23.1707 81.8678 24.0008C81.7785 24.3502 81.8382 24.7197 82.0325 25.0255C82.2268 25.3306 82.5398 25.5465 82.9001 25.6229C86.5868 26.4082 89.2625 29.655 89.2625 33.3431C89.2625 35.33 88.4958 37.2338 87.1037 38.7036C86.6068 39.2287 86.6225 40.0428 87.1387 40.5484C89.1602 42.5285 90.2736 45.1592 90.2736 47.9554C90.2743 51.8521 88.0819 55.4067 84.5523 57.2327Z" fill="#FEFDE0"/>
    <path d="M61.1161 63.5259V54.3633C61.1161 53.6277 60.5059 53.0316 59.7529 53.0316C58.9999 53.0316 58.3897 53.6277 58.3897 54.3633V63.5259C56.2653 64.1086 54.7009 66.0137 54.7009 68.2735C54.7009 70.9947 56.9668 73.2089 59.7529 73.2089C62.5384 73.2089 64.8049 70.9953 64.8049 68.2735C64.8049 66.0137 63.2413 64.1093 61.1161 63.5259ZM59.7529 70.5454C58.47 70.5454 57.4274 69.5268 57.4274 68.2735C57.4274 67.0202 58.4707 66.0017 59.7529 66.0017C61.0358 66.0017 62.0785 67.0209 62.0785 68.2735C62.0792 69.5268 61.0358 70.5454 59.7529 70.5454Z" fill="#FEFDE0"/>
    <path d="M74.3344 37.1104C74.033 37.1104 73.7393 37.1412 73.4523 37.1902L64.2983 20.931C64.6196 20.2826 64.8049 19.559 64.8049 18.7912C64.8049 16.0701 62.5391 13.8559 59.7529 13.8559C56.9675 13.8559 54.7009 16.0694 54.7009 18.7912C54.7009 21.051 56.2653 22.9554 58.3897 23.5388V44.4993C58.3897 45.2349 58.9999 45.8311 59.7529 45.8311C60.5059 45.8311 61.1161 45.2349 61.1161 44.4993V23.5388C61.5582 23.4175 61.9741 23.2384 62.3585 23.0118L70.9943 38.3523C69.9468 39.2569 69.2817 40.5752 69.2817 42.0457C69.2817 44.7669 71.5476 46.9811 74.3337 46.9811C77.1192 46.9811 79.3857 44.7676 79.3857 42.0457C79.3857 39.3246 77.1198 37.1104 74.3344 37.1104ZM59.7529 21.0631C58.47 21.0631 57.4274 20.0438 57.4274 18.7912C57.4274 17.5379 58.4707 16.5194 59.7529 16.5194C61.0358 16.5194 62.0785 17.5386 62.0785 18.7912C62.0792 20.0445 61.0358 21.0631 59.7529 21.0631ZM74.3344 44.3176C73.0515 44.3176 72.0088 43.2983 72.0088 42.0457C72.0088 40.7924 73.0522 39.7739 74.3344 39.7739C75.6173 39.7739 76.6599 40.7931 76.6599 42.0457C76.6599 43.2983 75.6166 44.3176 74.3344 44.3176Z" fill="#FEFDE0"/>
</svg>
