<svg width="98" height="88" viewBox="0 0 98 88" fill="none" xmlns="http://www.w3.org/2000/svg">
    <path d="M28.9653 56.0201C13.0403 56.173 -0.364674 43.505 0.00762686 27.3542C0.349799 12.4776 12.7082 0.0398566 28.7235 8.15084e-05C44.8279 -0.0369023 57.6174 12.5167 57.5915 28.0855C57.5664 43.6222 44.6406 55.9762 28.9653 56.0201ZM28.8218 53.1508C31.9218 53.1402 34.9953 52.5954 37.8998 51.5416C39.7125 50.8749 41.4408 50.0086 43.051 48.9597C45.0633 47.6587 46.8806 46.0928 48.4512 44.3067C48.657 44.0709 48.6262 43.9432 48.3651 43.7973C47.9157 43.5543 47.4915 43.2697 47.0983 42.9474C45.3666 41.482 44.2009 39.6328 43.2641 37.6266C42.6794 36.3531 42.188 35.041 41.7935 33.7C41.6307 33.1606 41.2835 32.9178 40.7175 32.9101C40.478 32.9058 40.2389 32.9292 40.0052 32.9799C38.9371 33.2144 37.9392 33.6344 36.955 34.0831C34.8217 35.0573 32.8153 36.2645 30.6654 37.1996C28.8383 37.9944 26.9352 38.3349 24.9374 38.046C22.4984 37.6929 20.3859 36.6225 18.434 35.2073C16.7296 33.9715 15.2468 32.5047 13.8365 30.9716C12.8882 29.941 11.6759 29.7009 10.3675 29.7337C9.57123 29.7539 8.7843 29.9054 8.00025 30.0945C6.42568 30.4762 4.94581 31.0868 3.48099 31.7441C3.31457 31.8181 3.25073 31.9248 3.2952 32.1049C3.37985 32.4538 3.42289 32.8124 3.49749 33.1648C4.22846 36.6027 5.70403 39.8495 7.82593 42.6892C9.18228 44.5189 10.7848 46.1634 12.5905 47.5788C17.1798 51.1991 22.9132 53.1672 28.8218 53.1508ZM2.94801 27.5412C2.94801 27.8315 2.94299 28.1225 2.94801 28.4128C2.9559 28.7561 3.00181 28.7819 3.32533 28.643C5.10147 27.8803 6.92782 27.2669 8.84886 26.9718C9.9507 26.8029 11.0683 26.7624 12.168 26.9411C13.7089 27.1775 15.1122 27.9417 16.1249 29.0959C17.0555 30.156 18.0703 31.1434 19.1599 32.049C20.6979 33.3051 22.3234 34.4076 24.2896 34.9505C25.6569 35.328 27.0155 35.379 28.3821 34.9568C30.0829 34.432 31.5836 33.5081 33.151 32.7175C35.1674 31.7001 37.1681 30.6478 39.4162 30.1761C40.2613 29.9982 41.1307 29.9724 41.9721 30.204C43.4204 30.6018 44.2447 31.6192 44.6607 32.9604C45.2604 34.894 46.0072 36.7613 47.0997 38.4835C47.8565 39.6698 48.7496 40.7326 50.0537 41.4039C50.4568 41.6132 50.5365 41.6041 50.771 41.2252C51.6225 39.8624 52.3743 38.4479 52.9446 36.9518C54.1397 33.8117 54.7257 30.5815 54.6081 27.2209C54.5246 24.92 54.1283 22.64 53.4295 20.4403C53.0536 19.2477 52.5335 18.1117 52.0077 16.9785C51.8858 16.7154 51.7423 16.6833 51.5185 16.8766C51.2947 17.0699 51.0695 17.2255 50.8464 17.3978C49.832 18.1913 48.8306 19.0028 47.6865 19.6211C45.9878 20.5464 44.1729 21.0795 42.2146 21.0313C40.5977 20.9937 39.0583 20.5708 37.5598 19.9888C35.6043 19.2275 33.7578 18.2485 31.8676 17.3483C29.6249 16.274 27.2389 15.5095 24.7789 15.0769C23.6211 14.8739 22.6634 15.0337 21.8636 15.9841C20.8086 17.221 19.5527 18.2817 18.1456 19.1242C17.3644 19.5994 16.5789 20.0753 15.6837 20.3189C13.6629 20.8687 11.7491 20.4703 9.9177 19.605C8.52534 18.9477 7.26856 18.0768 6.07347 17.1222C5.66745 16.7984 5.65884 16.8005 5.4336 17.2674C3.87079 20.4828 3.02401 23.9831 2.94873 27.5391L2.94801 27.5412ZM28.5571 2.90157C26.3484 2.84923 24.0723 3.21489 21.8299 3.83384C20.9447 4.07807 20.0781 4.37046 19.2216 4.69773C17.5767 5.33057 16.0051 6.13075 14.5331 7.08493C12.9995 8.07327 11.5773 9.21608 10.29 10.4944C9.22658 11.5624 8.25805 12.716 7.39481 13.943C7.25134 14.1398 7.27143 14.3017 7.47013 14.4545C7.75133 14.6701 8.02177 14.899 8.30081 15.1174C9.57338 16.1132 10.904 17.014 12.493 17.4739C13.6041 17.7956 14.678 17.753 15.7131 17.1773C17.1916 16.3595 18.5107 15.3575 19.6133 14.0944C20.8665 12.659 22.4174 11.9187 24.3779 12.1294C26.0823 12.3129 27.7408 12.7128 29.3663 13.2298C31.6223 13.9479 33.7213 15.012 35.8367 16.0413C37.3209 16.7635 38.8043 17.4851 40.4277 17.8891C42.8817 18.4997 45.0825 17.961 47.114 16.5654C47.9935 15.9618 48.7912 15.2563 49.6498 14.6275C50.3119 14.1391 50.3284 14.1391 49.865 13.4957C48.5802 11.7156 47.0567 10.1105 45.335 8.72269C42.9789 6.81415 40.2938 5.32691 37.4041 4.32998C34.5705 3.33317 31.5735 2.84837 28.5607 2.89948L28.5571 2.90157Z" fill="#FEFDE0"/>
    <path d="M67.0301 48.8203C69.6011 48.8426 71.9468 49.0673 74.2753 49.5293C77.0261 50.0823 79.7015 50.9443 82.2478 52.0979C84.0026 52.894 85.6957 53.8128 87.3137 54.8473C89.0353 55.9401 90.8502 56.8835 92.622 57.8904C94.1285 58.7459 95.6471 59.5805 97.1506 60.4402C98.0208 60.9385 98.2345 61.6565 97.7367 62.5127C96.5488 64.5566 95.3329 66.5851 94.1292 68.6199C92.848 70.7859 91.5666 72.9519 90.2849 75.1179C88.9832 77.3118 87.6779 79.5044 86.369 81.6955C85.7599 82.7219 85.1538 83.7498 84.5591 84.784C84.057 85.6597 83.3045 85.9291 82.3354 85.5299C80.3321 84.7044 78.261 84.0443 76.144 83.5565C74.506 83.1793 72.8369 82.9437 71.1563 82.8524C69.2977 82.7541 67.4742 82.9306 65.7224 83.5391C64.3143 84.0275 62.8911 84.4588 61.4535 84.8489C60.016 85.2389 58.5842 85.5641 57.1287 85.8328C55.3002 86.1705 53.458 86.4378 51.6051 86.6478C48.7077 86.9643 45.7905 87.0751 42.8765 86.9793C41.3873 86.9367 39.9017 86.8048 38.419 86.6185C36.947 86.4336 35.4915 86.1838 34.0504 85.8593C32.2929 85.4547 30.5691 84.9227 28.8934 84.2676C26.3511 83.2907 24.0936 81.8295 21.8032 80.4171C19.8353 79.2038 17.8537 78.012 15.8586 76.8415C14.1118 75.8116 12.3486 74.8081 10.5832 73.8081C9.63347 73.2701 8.6629 72.7677 7.82289 72.0636C6.32939 70.8138 5.21034 69.3331 4.91622 67.3967C4.5303 64.8476 5.92553 62.6355 8.56678 61.9796C10.3121 61.5462 11.9928 61.8665 13.6205 62.4681C16.7007 63.6125 19.7631 64.8022 22.8318 65.9759C25.5111 67.0003 28.199 68.0052 30.8661 69.0603C33.1968 69.9747 35.6537 70.5492 38.1571 70.765C40.4433 70.9743 42.7295 70.9408 45.0056 70.5382C47.6246 70.0756 50.0844 69.2298 52.3031 67.7881C54.0774 66.6471 55.51 65.07 56.4558 63.2168C56.5921 62.9516 56.8051 62.632 56.5993 62.3662C56.3934 62.1003 56.0254 62.2224 55.7212 62.2545C54.5599 62.3745 53.4717 62.7723 52.3627 63.0954C50.555 63.6222 48.73 64.0849 46.8707 64.4122C45.1397 64.7164 43.3987 64.9704 41.6405 64.9146C40.0975 64.8664 38.5746 64.6557 37.193 63.8776C35.5977 62.9795 34.998 61.1457 35.7999 59.54C36.4714 58.1954 37.6392 57.4034 38.9871 56.8186C40.2353 56.2785 41.5961 56.0733 42.8751 55.6114C44.8011 54.9136 46.7308 54.229 48.6483 53.511C51.159 52.5717 53.6553 51.606 56.161 50.659C58.3173 49.8433 60.5777 49.3946 62.8696 49.0925C64.3215 48.9075 65.7748 48.8629 67.0301 48.8203ZM67.363 51.6744C66.4226 51.7058 65.5876 51.6667 64.7519 51.749C63.2305 51.8944 61.7188 52.1232 60.224 52.4343C58.3833 52.8222 56.6488 53.5228 54.9035 54.19C52.5233 55.0971 50.1525 56.0301 47.7559 56.8954C45.4059 57.7446 43.0666 58.6273 40.6341 59.2456C39.8536 59.45 39.1553 59.8799 38.6313 60.4786C38.2726 60.8764 38.3078 61.1673 38.754 61.4555C39.0299 61.6187 39.331 61.7379 39.6456 61.8086C41.0444 62.1785 42.4691 62.1164 43.8815 61.9761C46.1311 61.7521 48.329 61.2567 50.5026 60.6503C51.6625 60.3279 52.8081 59.9525 53.9788 59.6733C55.0312 59.4221 56.0993 59.2316 57.2011 59.48C58.412 59.7522 59.2305 60.4207 59.4966 61.6056C59.6534 62.3392 59.5973 63.1007 59.3345 63.8051C58.9736 64.7925 58.4543 65.718 57.7958 66.5474C56.61 68.0722 55.2134 69.3875 53.5434 70.3966C51.9286 71.373 50.1899 72.1407 48.3714 72.6805C46.3013 73.2955 44.1579 73.6462 41.9949 73.7237C40.8963 73.7652 39.7961 73.7477 38.6994 73.6714C37.0684 73.5536 35.4486 73.319 33.8531 72.9694C31.9665 72.5612 30.1896 71.8424 28.4013 71.1551C26.4135 70.3875 24.4193 69.6352 22.428 68.8767C19.517 67.7644 16.6029 66.6533 13.6857 65.5433C12.5064 65.0939 11.3364 64.6417 10.0273 64.6361C8.38386 64.6299 7.41975 65.8161 7.87526 67.3506C7.98709 67.7308 8.15451 68.0934 8.37238 68.4273C9.12559 69.5822 10.2152 70.3596 11.4189 71.0092C14.5107 72.6798 17.53 74.4704 20.5292 76.2923C22.5958 77.5484 24.6381 78.8435 26.7241 80.0675C28.9386 81.3661 31.3366 82.2593 33.8344 82.8943C35.845 83.4049 37.895 83.755 39.9641 83.941C42.1671 84.1399 44.3664 84.2355 46.5794 84.1413C48.5607 84.0562 50.5313 83.8957 52.4975 83.6493C53.8368 83.4819 55.1703 83.283 56.4938 83.0283C58.8275 82.5921 61.1316 82.0177 63.3932 81.3082C64.3014 81.0186 65.1937 80.6683 66.1191 80.452C68.1069 79.9872 70.1298 79.8937 72.167 80.0745C73.9148 80.2304 75.6475 80.5174 77.3498 80.9328C78.9868 81.3305 80.585 81.8441 82.1711 82.3982C82.4508 82.4959 82.5721 82.4191 82.7048 82.1888C83.3174 81.1247 83.9429 80.0675 84.5699 79.011C85.5842 77.3 86.6007 75.5899 87.6193 73.8807C88.8091 71.8803 89.9994 69.8799 91.1902 67.8796C92.2418 66.1085 93.2834 64.3312 94.3422 62.5644C94.5 62.2999 94.4627 62.1917 94.1858 62.0396C92.3767 61.0445 90.5991 60.0013 88.7756 59.0265C86.9005 58.0223 85.1531 56.8179 83.2815 55.8082C81.1742 54.6632 78.9489 53.7367 76.6425 53.0441C73.5838 52.1272 70.4619 51.6492 67.363 51.6744Z" fill="#FEFDE0"/>
    <path d="M36.3256 25.7596C36.2754 27.338 35.3859 28.5654 33.9914 29.4949C32.5854 30.4321 31.008 30.855 29.3172 30.9764C27.8675 31.0797 26.4565 30.9464 25.0792 30.5088C23.5562 30.0253 22.2227 29.2653 21.3289 27.9221C20.476 26.6353 20.3555 25.2802 21.0283 23.8748C21.7163 22.4401 22.9472 21.5999 24.3841 20.9935C25.586 20.4938 26.8789 20.2342 28.186 20.2301C30.2239 20.2092 32.1873 20.5595 33.9118 21.7046C35.3293 22.648 36.3048 23.8664 36.3256 25.7596ZM28.4005 23.1456C27.6831 23.0758 26.9235 23.2154 26.1767 23.4352C25.3223 23.6885 24.5268 24.0555 23.9386 24.7449C23.4365 25.3402 23.4443 25.9235 23.9458 26.5111C24.4336 27.0826 25.0713 27.4441 25.7764 27.6869C27.7398 28.3631 29.6895 28.3149 31.6034 27.5034C32.1644 27.264 32.6708 26.9263 33.0474 26.4441C33.4728 25.8984 33.462 25.3932 33.0617 24.8392C32.7748 24.4386 32.3853 24.1518 31.952 23.9243C30.8657 23.3484 29.6357 23.0787 28.4005 23.1456Z" fill="#FEFDE0"/>
</svg>
