<svg width="26" height="26" viewBox="0 0 26 26" fill="none" xmlns="http://www.w3.org/2000/svg">
<g clip-path="url(#clip0_318_254)">
<path d="M5.24554 14.7951V8.33199C5.24584 7.9035 5.41626 7.49265 5.71934 7.18977C6.02244 6.88688 6.43339 6.71674 6.86188 6.71674H8.47713" stroke="#FFFFF1" stroke-width="2.125" stroke-linecap="round" stroke-linejoin="round"/>
<path d="M5.24554 11.5635H7.66896" stroke="#FFFFF1" stroke-width="2.125" stroke-linecap="round" stroke-linejoin="round"/>
<path d="M11.0598 14.7951V8.332C11.0541 8.1163 11.0918 7.90165 11.1705 7.70073C11.2492 7.49981 11.3673 7.31668 11.5179 7.16213C11.6685 7.00759 11.8485 6.88476 12.0473 6.8009C12.2461 6.71703 12.4597 6.67383 12.6755 6.67383C12.8913 6.67383 13.1049 6.71703 13.3038 6.8009C13.5026 6.88476 13.6826 7.00759 13.8332 7.16213C13.9838 7.31668 14.1019 7.49981 14.1806 7.70073C14.2593 7.90165 14.297 8.1163 14.2913 8.332V14.7951" stroke="#FFFFF1" stroke-width="2.125" stroke-linecap="round" stroke-linejoin="round"/>
<path d="M11.0597 11.5635H14.2913" stroke="#FFFFF1" stroke-width="2.125" stroke-linecap="round" stroke-linejoin="round"/>
<path d="M20.7546 13.1788C20.7602 13.3945 20.7226 13.6092 20.6438 13.8101C20.5652 14.011 20.447 14.1942 20.2964 14.3487C20.1458 14.5033 19.9659 14.626 19.767 14.71C19.5682 14.7938 19.3545 14.837 19.1388 14.837C18.923 14.837 18.7094 14.7938 18.5106 14.71C18.3118 14.626 18.1318 14.5033 17.9812 14.3487C17.8306 14.1942 17.7124 14.011 17.6338 13.8101C17.5551 13.6092 17.5174 13.3945 17.5231 13.1788V8.332C17.5174 8.1163 17.5551 7.90165 17.6338 7.70073C17.7124 7.49981 17.8306 7.31668 17.9812 7.16213C18.1318 7.00759 18.3118 6.88476 18.5106 6.8009C18.7094 6.71703 18.923 6.67383 19.1388 6.67383C19.3545 6.67383 19.5682 6.71703 19.767 6.8009C19.9659 6.88476 20.1458 7.00759 20.2964 7.16213C20.447 7.31668 20.5652 7.49981 20.6438 7.70073C20.7226 7.90165 20.7602 8.1163 20.7546 8.332V13.1788Z" stroke="#FFFFF1" stroke-width="2.125" stroke-linecap="round" stroke-linejoin="round"/>
<path d="M19.1382 14.7951L20.7545 16.4104" stroke="#FFFFF1" stroke-width="2.125" stroke-linecap="round" stroke-linejoin="round"/>
<path d="M24.05 2.78528H1.95C1.64792 2.78643 1.3586 2.90724 1.1454 3.12124C0.932203 3.33525 0.812498 3.62503 0.8125 3.92711V18.6475C0.812498 18.9495 0.932203 19.2393 1.1454 19.4534C1.3586 19.6673 1.64792 19.7881 1.95 19.7893H4.59658C4.35846 21.0283 3.84536 22.1982 3.09508 23.2126C6.39925 23.2603 8.49008 21.982 9.74458 19.7893H24.05C24.3528 19.7893 24.6432 19.6689 24.8574 19.4549C25.0716 19.2407 25.1918 18.9503 25.1918 18.6475V3.92711C25.1918 3.62429 25.0716 3.33386 24.8574 3.11971C24.6432 2.90558 24.3528 2.78528 24.05 2.78528Z" stroke="#FFFFF1" stroke-width="2.125" stroke-linecap="round" stroke-linejoin="round"/>
</g>
<defs>
<clipPath id="clip0_318_254">
<rect width="26" height="26" fill="white"/>
</clipPath>
</defs>
</svg>
