<svg width="94" height="87" viewBox="0 0 94 87" fill="none" xmlns="http://www.w3.org/2000/svg">
<path d="M26.4987 15.4163H67.5013C68.8896 15.4176 70.2638 15.6942 71.5452 16.2302C72.8265 16.7662 73.9895 17.5509 74.9675 18.5393C75.9517 19.5222 76.7326 20.6905 77.2656 21.977C77.7986 23.2635 78.073 24.6429 78.0732 26.036V60.9723C78.0652 63.7823 76.9488 66.4749 74.9679 68.4619C72.987 70.4488 70.3027 71.5687 67.5013 71.5768H26.4987C23.696 71.5707 21.0097 70.4517 19.0272 68.4646C17.0447 66.4774 15.9272 63.7836 15.9191 60.9723V26.0284C15.9201 24.6376 16.1949 23.2607 16.7279 21.9769C17.2609 20.693 18.0415 19.5273 19.0249 18.5469C20.0037 17.5629 21.1662 16.782 22.4459 16.2488C23.7257 15.7156 25.0976 15.4405 26.4834 15.4393L26.4987 15.4163ZM43.7183 56.8518C43.3281 56.8518 43.0833 56.7827 42.7926 56.7367L41.1786 56.4988L40.1764 56.33C39.8551 56.2763 39.5262 56.2073 39.2126 56.1382L38.2487 55.8773L37.8739 55.7775V49.5008L39.641 49.6466L40.9414 49.7234L42.3031 49.7847L43.68 49.8308H45.0264H46.2733C46.6481 49.8308 46.9847 49.8308 47.2677 49.8308C47.5248 49.8043 47.7802 49.7633 48.0327 49.708C48.2226 49.6676 48.4074 49.6058 48.5835 49.5239C48.7037 49.4635 48.8145 49.386 48.9124 49.2937C48.9891 49.222 49.047 49.1323 49.0807 49.0328C49.1269 48.8997 49.1477 48.7592 49.1419 48.6184V48.2041C49.154 48.0671 49.1317 47.9293 49.0769 47.8033C49.0221 47.6772 48.9366 47.567 48.8283 47.4828C48.6976 47.3909 48.5529 47.321 48.3999 47.2756C48.2267 47.2211 48.0459 47.1952 47.8644 47.1989H46.0897C44.8554 47.2172 43.6246 47.0622 42.4331 46.7385C41.4252 46.4546 40.4908 45.9545 39.6945 45.2729C38.9044 44.5851 38.3171 43.6935 37.9963 42.6947C37.6209 41.5018 37.4477 40.2542 37.4837 39.0038V37.8682C37.4635 36.6691 37.6685 35.4769 38.0881 34.3538C38.4807 33.3551 39.1204 32.4731 39.9469 31.791C40.4998 31.3069 41.1146 30.8992 41.7752 30.5786C42.4044 30.2868 43.0713 30.0853 43.7565 29.9801V27.1947H49.5244V29.865C50.4077 29.9461 51.2861 30.0741 52.1559 30.2486L52.6379 30.3331C53.0433 30.4021 53.4487 30.4788 53.8465 30.5633C54.2443 30.6477 54.6115 30.7244 54.9251 30.8088L55.3153 30.9009V37.1853L54.7645 37.1316L53.0892 37.0088L51.1768 36.909C50.5112 36.909 49.884 36.863 49.3026 36.8476C48.7212 36.8323 48.1934 36.8323 47.6043 36.8323C47.2907 36.8323 47 36.8323 46.7323 36.8323C46.4757 36.8484 46.2203 36.8791 45.9673 36.9244C45.78 36.9578 45.5975 37.0145 45.4242 37.0932C45.2927 37.1525 45.1734 37.2357 45.0723 37.3387C44.985 37.4243 44.9195 37.5295 44.881 37.6457C44.8316 37.8203 44.8084 38.0013 44.8122 38.1828V38.5281C44.8078 38.7189 44.8389 38.9089 44.904 39.0882C44.9612 39.2272 45.0535 39.3488 45.1717 39.4412C45.3189 39.5594 45.4919 39.6409 45.6766 39.6791C45.9568 39.7489 46.2447 39.7824 46.5334 39.7788H48.8283C49.5996 39.7741 50.3692 39.8538 51.1232 40.0167C51.8047 40.1761 52.4593 40.4346 53.0662 40.784C54.1827 41.4026 55.0907 42.34 55.6748 43.4773C55.9717 44.0451 56.1953 44.6485 56.3403 45.2729C56.4824 45.9335 56.5542 46.6074 56.5545 47.2833V48.4266C56.5651 49.4295 56.4651 50.4306 56.2562 51.4115C56.0875 52.2282 55.774 53.0079 55.3306 53.7134C54.9233 54.3314 54.4044 54.8676 53.8006 55.2941C53.1901 55.7342 52.5062 56.0616 51.7811 56.261L51.5898 56.3147C50.8981 56.5391 50.1857 56.6934 49.4632 56.7751V59.783H43.7183V56.8211V56.8518ZM83.5887 46.7692V52.409C83.5907 52.6892 83.7026 52.9574 83.9001 53.1555C84.0977 53.3537 84.365 53.4659 84.6444 53.4679H92.9443C93.2237 53.4659 93.4911 53.3537 93.6886 53.1555C93.8861 52.9574 93.998 52.6892 94 52.409V46.7385C94 46.4576 93.8888 46.1883 93.6908 45.9897C93.4928 45.7911 93.2243 45.6796 92.9443 45.6796H84.6444C84.3644 45.6796 84.0959 45.7911 83.8979 45.9897C83.6999 46.1883 83.5887 46.4576 83.5887 46.7385V46.7692ZM83.5887 33.763V39.4259C83.5887 39.7067 83.6999 39.976 83.8979 40.1746C84.0959 40.3732 84.3644 40.4848 84.6444 40.4848H92.9443C93.2243 40.4848 93.4928 40.3732 93.6908 40.1746C93.8888 39.976 94 39.7067 94 39.4259V33.763C94 33.4822 93.8888 33.2128 93.6908 33.0142C93.4928 32.8157 93.2243 32.7041 92.9443 32.7041H84.6444C84.3644 32.7041 84.0959 32.8157 83.8979 33.0142C83.6999 33.2128 83.5887 33.4822 83.5887 33.763ZM83.5887 59.783V65.4458C83.5887 65.7267 83.6999 65.996 83.8979 66.1946C84.0959 66.3932 84.3644 66.5048 84.6444 66.5048H92.9443C93.2243 66.5048 93.4928 66.3932 93.6908 66.1946C93.8888 65.996 94 65.7267 94 65.4458V59.7523C94 59.4715 93.8888 59.2021 93.6908 59.0035C93.4928 58.805 93.2243 58.6934 92.9443 58.6934H84.6444C84.3644 58.6934 84.0959 58.805 83.8979 59.0035C83.6999 59.2021 83.5887 59.4715 83.5887 59.7523V59.783ZM83.5887 20.7492V26.4197C83.5887 26.7005 83.6999 26.9699 83.8979 27.1685C84.0959 27.367 84.3644 27.4786 84.6444 27.4786H92.9443C93.2243 27.4786 93.4928 27.367 93.6908 27.1685C93.8888 26.9699 94 26.7005 94 26.4197V20.7185C93.998 20.4382 93.8861 20.1701 93.6886 19.9719C93.4911 19.7738 93.2237 19.6616 92.9443 19.6596H84.6444C84.365 19.6616 84.0977 19.7738 83.9001 19.9719C83.7026 20.1701 83.5907 20.4382 83.5887 20.7185V20.7492ZM10.4113 46.7385V52.409C10.4093 52.6892 10.2974 52.9574 10.0999 53.1555C9.90234 53.3537 9.63499 53.4659 9.35563 53.4679H1.05566C0.776303 53.4659 0.508953 53.3537 0.31141 53.1555C0.113867 52.9574 0.00200266 52.6892 0 52.409L0 46.7385C0 46.4576 0.111221 46.1883 0.309197 45.9897C0.507172 45.7911 0.775685 45.6796 1.05566 45.6796H9.35563C9.63561 45.6796 9.90412 45.7911 10.1021 45.9897C10.3001 46.1883 10.4113 46.4576 10.4113 46.7385ZM10.4113 33.7323V39.3952C10.4113 39.676 10.3001 39.9453 10.1021 40.1439C9.90412 40.3425 9.63561 40.4541 9.35563 40.4541H1.05566C0.775685 40.4541 0.507172 40.3425 0.309197 40.1439C0.111221 39.9453 0 39.676 0 39.3952L0 33.763C0 33.4822 0.111221 33.2128 0.309197 33.0142C0.507172 32.8157 0.775685 32.7041 1.05566 32.7041H9.35563C9.63561 32.7041 9.90412 32.8157 10.1021 33.0142C10.3001 33.2128 10.4113 33.4822 10.4113 33.763V33.7323ZM10.4113 59.7523V65.4152C10.4113 65.696 10.3001 65.9653 10.1021 66.1639C9.90412 66.3625 9.63561 66.4741 9.35563 66.4741H1.05566C0.775685 66.4741 0.507172 66.3625 0.309197 66.1639C0.111221 65.9653 0 65.696 0 65.4152L0 59.7523C0 59.4715 0.111221 59.2021 0.309197 59.0035C0.507172 58.805 0.775685 58.6934 1.05566 58.6934H9.35563C9.63561 58.6934 9.90412 58.805 10.1021 59.0035C10.3001 59.2021 10.4113 59.4715 10.4113 59.7523ZM10.4113 20.7185V26.389C10.4113 26.6698 10.3001 26.9392 10.1021 27.1378C9.90412 27.3363 9.63561 27.4479 9.35563 27.4479H1.05566C0.775685 27.4479 0.507172 27.3363 0.309197 27.1378C0.111221 26.9392 0 26.6698 0 26.389L0 20.7185C0.00200266 20.4382 0.113867 20.1701 0.31141 19.9719C0.508953 19.7738 0.776303 19.6616 1.05566 19.6596H9.35563C9.63499 19.6616 9.90234 19.7738 10.0999 19.9719C10.2974 20.1701 10.4093 20.4382 10.4113 20.7185ZM63.6305 76.5567H69.276C69.556 76.5567 69.8245 76.6683 70.0225 76.8669C70.2205 77.0654 70.3317 77.3348 70.3317 77.6156V85.9411C70.3317 86.2219 70.2205 86.4913 70.0225 86.6899C69.8245 86.8884 69.556 87 69.276 87H63.6305C63.3506 87 63.082 86.8884 62.8841 86.6899C62.6861 86.4913 62.5749 86.2219 62.5749 85.9411V77.6156C62.5749 77.3348 62.6861 77.0654 62.8841 76.8669C63.082 76.6683 63.3506 76.5567 63.6305 76.5567ZM50.626 76.5567H56.2791C56.421 76.5516 56.5624 76.5751 56.6949 76.626C56.8274 76.6769 56.9483 76.7541 57.0505 76.853C57.1526 76.9518 57.2338 77.0703 57.2892 77.2013C57.3446 77.3324 57.3731 77.4733 57.3731 77.6156V85.9411C57.3731 86.2219 57.2618 86.4913 57.0639 86.6899C56.8659 86.8884 56.5974 87 56.3174 87H50.6566C50.3772 86.998 50.1099 86.8858 49.9123 86.6876C49.7148 86.4895 49.6029 86.2213 49.6009 85.9411V77.6156C49.6029 77.3354 49.7148 77.0672 49.9123 76.8691C50.1099 76.6709 50.3772 76.5587 50.6566 76.5567H50.626ZM37.6597 76.5567H43.3052C43.5859 76.5567 43.8552 76.668 44.0544 76.8664C44.2536 77.0648 44.3665 77.3341 44.3685 77.6156V85.9411C44.3665 86.2226 44.2536 86.492 44.0544 86.6903C43.8552 86.8887 43.5859 87 43.3052 87H37.6903C37.5516 87 37.4144 86.9726 37.2863 86.9194C37.1582 86.8662 37.0418 86.7882 36.9438 86.6899C36.8458 86.5915 36.768 86.4748 36.715 86.3463C36.6619 86.2178 36.6346 86.0802 36.6346 85.9411V77.6156C36.6346 77.4766 36.6619 77.3389 36.715 77.2104C36.768 77.0819 36.8458 76.9652 36.9438 76.8669C37.0418 76.7685 37.1582 76.6905 37.2863 76.6373C37.4144 76.5841 37.5516 76.5567 37.6903 76.5567H37.6597ZM24.6551 76.5567H30.3695C30.6494 76.5567 30.918 76.6683 31.1159 76.8669C31.3139 77.0654 31.4251 77.3348 31.4251 77.6156V85.9411C31.4251 86.2219 31.3139 86.4913 31.1159 86.6899C30.918 86.8884 30.6494 87 30.3695 87H24.724C24.444 87 24.1755 86.8884 23.9775 86.6899C23.7795 86.4913 23.6683 86.2219 23.6683 85.9411V77.6156C23.6683 77.3348 23.7795 77.0654 23.9775 76.8669C24.1755 76.6683 24.444 76.5567 24.724 76.5567H24.6551ZM63.6305 0.000695317H69.276C69.556 0.000695317 69.8245 0.112259 70.0225 0.310842C70.2205 0.509426 70.3317 0.778764 70.3317 1.0596V9.38508C70.3317 9.66592 70.2205 9.93526 70.0225 10.1338C69.8245 10.3324 69.556 10.444 69.276 10.444H63.6305C63.3506 10.444 63.082 10.3324 62.8841 10.1338C62.6861 9.93526 62.5749 9.66592 62.5749 9.38508V1.0596C62.5749 0.778764 62.6861 0.509426 62.8841 0.310842C63.082 0.112259 63.3506 0.000695317 63.6305 0.000695317ZM50.626 0.000695317H56.2791C56.421 -0.00446218 56.5624 0.0191143 56.6949 0.0700154C56.8274 0.120917 56.9483 0.198097 57.0505 0.296945C57.1526 0.395792 57.2338 0.514276 57.2892 0.645315C57.3446 0.776354 57.3731 0.917258 57.3731 1.0596V9.38508C57.3731 9.66592 57.2618 9.93526 57.0639 10.1338C56.8659 10.3324 56.5974 10.444 56.3174 10.444H50.6566C50.3772 10.442 50.1099 10.3298 49.9123 10.1316C49.7148 9.93347 49.6029 9.6653 49.6009 9.38508V1.0596C49.6029 0.779384 49.7148 0.511213 49.9123 0.313062C50.1099 0.114912 50.3772 0.00270413 50.6566 0.000695317H50.626ZM37.6903 0.000695317H43.3358C43.6111 0.00864043 43.8727 0.123463 44.0653 0.320982C44.2579 0.5185 44.3666 0.783297 44.3685 1.0596V9.38508C44.3665 9.66662 44.2536 9.93594 44.0544 10.1343C43.8552 10.3327 43.5859 10.444 43.3052 10.444H37.6903C37.5516 10.444 37.4144 10.4166 37.2863 10.3634C37.1582 10.3102 37.0418 10.2322 36.9438 10.1338C36.8458 10.0355 36.768 9.91878 36.715 9.79031C36.6619 9.66183 36.6346 9.52414 36.6346 9.38508V1.0596C36.6346 0.920546 36.6619 0.78285 36.715 0.654377C36.768 0.525904 36.8458 0.409171 36.9438 0.310842C37.0418 0.212514 37.1582 0.134515 37.2863 0.0812999C37.4144 0.0280848 37.5516 0.000695317 37.6903 0.000695317ZM24.6857 0.000695317H30.3695C30.6494 0.000695317 30.918 0.112259 31.1159 0.310842C31.3139 0.509426 31.4251 0.778764 31.4251 1.0596V9.38508C31.4251 9.66592 31.3139 9.93526 31.1159 10.1338C30.918 10.3324 30.6494 10.444 30.3695 10.444H24.724C24.444 10.444 24.1755 10.3324 23.9775 10.1338C23.7795 9.93526 23.6683 9.66592 23.6683 9.38508V1.0596C23.6683 0.778764 23.7795 0.509426 23.9775 0.310842C24.1755 0.112259 24.444 0.000695317 24.724 0.000695317H24.6857ZM67.5013 20.7185H26.4987C25.8088 20.7162 25.1252 20.8506 24.4873 21.1139C23.8493 21.3773 23.2694 21.7644 22.7809 22.2531C22.2937 22.7431 21.9078 23.3247 21.6452 23.9647C21.3827 24.6046 21.2487 25.2903 21.251 25.9823V60.9723C21.261 62.3707 21.8198 63.7088 22.8063 64.6969C23.7928 65.685 25.1276 66.2435 26.5216 66.2515H67.5243C68.9183 66.2435 70.2531 65.685 71.2396 64.6969C72.2261 63.7088 72.7849 62.3707 72.7949 60.9723V26.0284C72.797 24.6312 72.2468 23.2902 71.265 22.2992C70.7765 21.8105 70.1966 21.4233 69.5587 21.16C68.9207 20.8966 68.2371 20.7622 67.5472 20.7645L67.5013 20.7185Z" fill="#FEFDE0"/>
</svg>
