<svg width="15" height="15" viewBox="0 0 15 15" fill="none" xmlns="http://www.w3.org/2000/svg">
<g clip-path="url(#clip0_342_730)">
<path d="M5.51836 11.6503C2.45244 12.5701 2.45244 10.1173 1.22607 9.81075M9.81065 13.4899V11.1168C9.83365 10.8244 9.79415 10.5305 9.69477 10.2546C9.59539 9.97862 9.43841 9.727 9.23426 9.51642C11.1597 9.30181 13.1832 8.57212 13.1832 5.22413C13.183 4.36802 12.8537 3.54474 12.2634 2.92469C12.5429 2.17569 12.5231 1.3478 12.2082 0.612987C12.2082 0.612987 11.4846 0.398372 9.81065 1.5205C8.40524 1.1396 6.92378 1.1396 5.51836 1.5205C3.84437 0.398372 3.12081 0.612987 3.12081 0.612987C2.80587 1.3478 2.7861 2.17569 3.06563 2.92469C2.47092 3.54934 2.14127 4.38006 2.14585 5.24253C2.14585 8.56598 4.16936 9.29567 6.09476 9.53482C5.89302 9.74328 5.73743 9.99189 5.63812 10.2645C5.53881 10.537 5.49801 10.8274 5.51836 11.1168V13.4899" stroke="#FEFDE0" stroke-width="1.26866" stroke-linecap="round" stroke-linejoin="round"/>
</g>
<defs>
<clipPath id="clip0_342_730">
<rect width="14.7164" height="14.7164" fill="white"/>
</clipPath>
</defs>
</svg>
