<?xml version="1.0" encoding="UTF-8"?>
<svg version="1.1" xmlns="http://www.w3.org/2000/svg" width="764" height="104">
<path d="M0 0 C252.12 0 504.24 0 764 0 C764 34.32 764 68.64 764 104 C511.88 104 259.76 104 0 104 C0 69.68 0 35.36 0 0 Z " fill="#0E3659" transform="translate(0,0)"/>
<path d="M0 0 C6.54442047 4.4946183 11.42485137 10.02523703 13 18 C13.29881812 21.87101856 13.32337539 25.74376763 13.375 29.625 C13.43107422 31.18927734 13.43107422 31.18927734 13.48828125 32.78515625 C13.58669699 41.54415675 11.40742692 47.7439309 5.9296875 54.5859375 C-1.51013099 61.06395436 -9.50456528 64.832139 -19.53125 64.30859375 C-28.69313069 63.16335866 -34.86153632 60.01718036 -41 53 C-42.69544436 50.43041718 -43.94124916 47.88550748 -45 45 C-45.35449219 44.13117188 -45.70898438 43.26234375 -46.07421875 42.3671875 C-48.65245571 32.98980243 -48.72432693 19.82365386 -44.33203125 11.0390625 C-39.79504979 4.09388854 -34.6511785 -1.17600843 -26.8125 -4.25 C-16.77245346 -6.22509112 -9.00061128 -4.98360206 0 0 Z " fill="#F6F8F9" transform="translate(222,28)"/>
<path d="M0 0 C7.77057491 8.131997 8.84468011 16.12373883 8.78515625 26.92578125 C8.7837413 27.89533249 8.78232635 28.86488373 8.78086853 29.86381531 C8.77528513 32.95090867 8.76273564 36.03792867 8.75 39.125 C8.74498286 41.22200416 8.74042032 43.31900946 8.73632812 45.41601562 C8.72532112 50.54820521 8.70806788 55.68034018 8.6875 60.8125 C2.7475 60.8125 -3.1925 60.8125 -9.3125 60.8125 C-9.3125 56.5225 -9.3125 52.2325 -9.3125 47.8125 C-16.9025 47.8125 -24.4925 47.8125 -32.3125 47.8125 C-32.3125 52.1025 -32.3125 56.3925 -32.3125 60.8125 C-38.2525 60.8125 -44.1925 60.8125 -50.3125 60.8125 C-50.41198619 54.58696052 -50.48425931 48.36189218 -50.53222656 42.13574219 C-50.55224016 40.02140228 -50.57945972 37.90711701 -50.61425781 35.79296875 C-50.66322941 32.73944552 -50.68557182 29.68665922 -50.703125 26.6328125 C-50.72377014 25.70010529 -50.74441528 24.76739807 -50.76568604 23.806427 C-50.76868673 14.86584786 -48.1968567 6.89953849 -42.015625 0.28125 C-30.20675404 -9.90254697 -12.25811873 -8.09498407 0 0 Z " fill="#F7F9F9" transform="translate(355.3125,30.1875)"/>
<path d="M0 0 C6.43305501 4.8640172 9.8320286 10.25610217 12 18 C12.50486756 22.08225347 12.5172471 26.07923813 12.4375 30.1875 C12.44458984 31.22841797 12.45167969 32.26933594 12.45898438 33.34179688 C12.40934495 39.35580472 11.85987911 43.69272435 9 49 C8.60941406 49.73347656 8.21882812 50.46695313 7.81640625 51.22265625 C3.03942674 58.23186918 -4.11364587 61.37121529 -12 64 C-22.16363316 64.93090334 -29.25415677 63.1851524 -37.25 56.875 C-42.80411601 51.74215426 -46.54703759 44.45429225 -47.17700195 36.86865234 C-47.54004491 23.34494056 -47.54288727 13.01762141 -37.80078125 2.69140625 C-28.15622256 -6.36736579 -11.16214962 -7.08136374 0 0 Z " fill="#36B9AB" transform="translate(742,28)"/>
<path d="M0 0 C1.40429047 0.01005265 2.80858793 0.01917445 4.21289062 0.02734375 C7.6211687 0.05076834 11.02935736 0.08663442 14.4375 0.125 C14.4375 5.735 14.4375 11.345 14.4375 17.125 C11.15039062 17.16367187 11.15039062 17.16367187 7.796875 17.203125 C5.66865328 17.24156579 3.5406722 17.28671895 1.41259766 17.33251953 C-0.06352196 17.36070088 -1.53979169 17.38192966 -3.01611328 17.39599609 C-5.14173057 17.41746698 -7.26554879 17.46413043 -9.390625 17.515625 C-10.6684082 17.53657227 -11.94619141 17.55751953 -13.26269531 17.57910156 C-17.08834621 18.21199261 -18.26289636 19.06303532 -20.5625 22.125 C-20.8925 23.115 -21.2225 24.105 -21.5625 25.125 C-9.6825 25.125 2.1975 25.125 14.4375 25.125 C14.4375 30.735 14.4375 36.345 14.4375 42.125 C2.5575 42.125 -9.3225 42.125 -21.5625 42.125 C-18.43074314 47.89760299 -18.43074314 47.89760299 -15.5625 49.125 C-13.31275839 49.27995763 -11.05878464 49.37510928 -8.8046875 49.44140625 C-8.14163605 49.46218735 -7.47858459 49.48296844 -6.79544067 49.50437927 C-4.67623306 49.56979231 -2.556901 49.62872105 -0.4375 49.6875 C0.99871081 49.73069309 2.43490902 49.77430764 3.87109375 49.81835938 C7.39310344 49.92625909 10.91520688 50.02539243 14.4375 50.125 C14.4375 55.735 14.4375 61.345 14.4375 67.125 C10.06222124 67.21754409 5.69042439 67.29694885 1.31494141 67.34472656 C-0.16890048 67.36466981 -1.65266555 67.3918349 -3.13623047 67.42675781 C-13.80542233 67.67136504 -23.120763 67.36862548 -31.4375 59.875 C-39.59120001 50.8963374 -41.15098375 40.05725167 -40.875 28.3671875 C-40.40102285 19.48406582 -37.12286412 12.14277761 -30.5625 6.125 C-21.74991132 -1.12090625 -10.77586431 -0.13496888 0 0 Z " fill="#F5F7F8" transform="translate(468.5625,23.875)"/>
<path d="M0 0 C0 0.66 0 1.32 0 2 C2.31 2.33 4.62 2.66 7 3 C7 3.66 7 4.32 7 5 C7.721875 5.20625 8.44375 5.4125 9.1875 5.625 C14.41923033 8.18273483 17.14826098 12.56927155 19.35473633 17.81822205 C20.6452901 22.18186731 20.3618869 26.67114737 20.29296875 31.18359375 C20.28872391 32.23909927 20.28447906 33.2946048 20.28010559 34.38209534 C20.26339049 37.73416271 20.22575088 41.0856161 20.1875 44.4375 C20.17244393 46.71809024 20.15875714 48.99868996 20.14648438 51.27929688 C20.11351034 56.85309907 20.06177702 62.42644564 20 68 C14.06 68 8.12 68 2 68 C1.67 52.49 1.34 36.98 1 21 C0.01 20.67 -0.98 20.34 -2 20 C-2 19.34 -2 18.68 -2 18 C-3.93742341 17.97296619 -5.87495479 17.95358875 -7.8125 17.9375 C-8.89144531 17.92589844 -9.97039062 17.91429688 -11.08203125 17.90234375 C-14.06512169 17.86375234 -14.06512169 17.86375234 -17 19 C-19.09868217 22.14802325 -19.25962003 22.9602183 -19.31884766 26.56323242 C-19.33871735 27.48396042 -19.35858704 28.40468842 -19.37905884 29.35331726 C-19.39638565 30.83938225 -19.39638565 30.83938225 -19.4140625 32.35546875 C-19.43342865 33.37224197 -19.4527948 34.3890152 -19.4727478 35.43659973 C-19.53256741 38.68681427 -19.57893876 41.93706417 -19.625 45.1875 C-19.66317756 47.38998948 -19.70222916 49.59246399 -19.7421875 51.79492188 C-19.83827103 57.19649316 -19.92229349 62.59813435 -20 68 C-25.94 68 -31.88 68 -38 68 C-38.12397655 60.88336478 -38.21452013 53.76736387 -38.2746582 46.64990234 C-38.29973872 44.23084558 -38.33381149 41.81186411 -38.37719727 39.39306641 C-38.43813045 35.90768816 -38.46627563 32.42331536 -38.48828125 28.9375 C-38.51408768 27.86322754 -38.5398941 26.78895508 -38.56648254 25.68212891 C-38.56941768 17.75116877 -36.74317081 12.97898549 -31.32270813 7.21704102 C-22.47125433 -1.39146133 -11.49475606 -0.35632424 0 0 Z " fill="#F6F8F9" transform="translate(77,23)"/>
<path d="M0 0 C5.04091009 4.09057458 7.54336562 8.75430204 8.5625 15.1875 C8.64420868 16.78261805 8.6804254 18.38057985 8.67602539 19.9777832 C8.67594986 20.89836014 8.67587433 21.81893707 8.67579651 22.76741028 C8.67063522 23.7477977 8.66547394 24.72818512 8.66015625 25.73828125 C8.6587413 26.75222458 8.65732635 27.76616791 8.65586853 28.81083679 C8.65028328 32.04058821 8.63773345 35.27026962 8.625 38.5 C8.6199831 40.69335837 8.61542052 42.88671783 8.61132812 45.08007812 C8.60031867 50.44924561 8.58306414 55.81836095 8.5625 61.1875 C2.6225 61.1875 -3.3175 61.1875 -9.4375 61.1875 C-9.43637207 59.85050049 -9.43524414 58.51350098 -9.43408203 57.13598633 C-9.43775684 52.16892194 -9.4805808 47.2028285 -9.53515625 42.23608398 C-9.55330924 40.08771013 -9.56088603 37.93921954 -9.55761719 35.79077148 C-9.55475815 32.69944063 -9.59009365 29.61052716 -9.6328125 26.51953125 C-9.62371857 25.56101761 -9.61462463 24.60250397 -9.60525513 23.61494446 C-9.63267248 18.71795287 -9.63267248 18.71795287 -11.74172974 14.45649719 C-14.7110513 11.88802921 -17.12712946 10.5344585 -21.0625 10.75 C-21.79726562 10.77191406 -22.53203125 10.79382813 -23.2890625 10.81640625 C-25.7056482 11.23381651 -27.36008153 11.8858264 -29.4375 13.1875 C-31.52132862 16.31324293 -31.69639959 17.09202555 -31.75634766 20.65893555 C-31.77621735 21.55964279 -31.79608704 22.46035004 -31.81655884 23.38835144 C-31.83388565 24.84160576 -31.83388565 24.84160576 -31.8515625 26.32421875 C-31.87092865 27.31879593 -31.8902948 28.31337311 -31.9102478 29.33808899 C-31.97006159 32.5169719 -32.01643639 35.69589098 -32.0625 38.875 C-32.1006781 41.02931273 -32.13972973 43.18361017 -32.1796875 45.33789062 C-32.27576472 50.62096966 -32.3597893 55.90412017 -32.4375 61.1875 C-38.3775 61.1875 -44.3175 61.1875 -50.4375 61.1875 C-50.53694171 54.6771278 -50.60923898 48.16720517 -50.65722656 41.65625 C-50.67724747 39.44490855 -50.70447259 37.23361942 -50.73925781 35.02246094 C-50.78819627 31.82994622 -50.81056467 28.63813604 -50.828125 25.4453125 C-50.84877014 24.46885773 -50.86941528 23.49240295 -50.89068604 22.48635864 C-50.8931978 14.669666 -49.29011984 7.78544721 -44.359375 1.56640625 C-30.97740495 -9.62534928 -14.60963106 -10.03571341 0 0 Z " fill="#F6F8F9" transform="translate(157.4375,29.8125)"/>
<path d="M0 0 C4.08838565 -0.24999536 8.17373633 -0.42987854 12.26806641 -0.54931641 C13.65557416 -0.59915736 15.04256888 -0.66707033 16.42822266 -0.75439453 C27.83444214 -1.45441522 27.83444214 -1.45441522 32.96191406 1.98925781 C35.5314044 4.53148565 37.77717449 7.15192448 40 10 C41.20138358 11.38107637 42.40912085 12.75666805 43.625 14.125 C44.17542969 14.76695313 44.72585938 15.40890625 45.29296875 16.0703125 C48.36395587 19.54186316 51.69246261 22.75582539 55 26 C59.66943156 30.57997885 64.14095888 35.23097153 68.41015625 40.1875 C70.50099282 42.57115643 72.72887685 44.78864325 75 47 C77.84863007 49.81456574 80.60529312 52.62735252 83.1875 55.6875 C87.37061369 60.6046697 92.0368758 65.05791141 96.6706543 69.5456543 C97.29883057 70.162229 97.92700684 70.77880371 98.57421875 71.4140625 C99.13713623 71.9601416 99.70005371 72.5062207 100.2800293 73.06884766 C102.47807626 75.53677547 104.21424256 78.22432507 106 81 C101.75023505 81.22456079 97.50371187 81.38670785 93.24975586 81.49438477 C91.80708615 81.5393122 90.36481851 81.60048585 88.92358398 81.67895508 C76.98950317 82.31185434 76.98950317 82.31185434 72.10424805 79.09057617 C69.83748085 76.83671584 67.90635839 74.56156806 66 72 C64.90370731 70.72236792 63.80093423 69.4502215 62.6875 68.1875 C62.13449219 67.54167969 61.58148437 66.89585938 61.01171875 66.23046875 C57.98430924 62.8738652 54.76222964 59.7178601 51.52612305 56.56323242 C48.76304019 53.84808294 46.15372219 51.06084073 43.625 48.125 C39.94763486 43.87380425 36.01111825 39.93427691 32 36 C27.32032964 31.40997849 22.83724173 26.7487506 18.55859375 21.78125 C16.63512458 19.58299952 14.59601613 17.53344848 12.5 15.5 C1.55621806 4.66865417 1.55621806 4.66865417 0 0 Z " fill="#36B9AA" transform="translate(491,10)"/>
<path d="M0 0 C6.27 0 12.54 0 19 0 C20.53281079 4.55229424 22.06368312 9.10515218 23.58984375 13.65966797 C24.10860007 15.20593603 24.62843707 16.751842 25.14941406 18.29736328 C25.90199944 20.53060993 26.65057071 22.76516942 27.3984375 25 C27.6287265 25.68054443 27.8590155 26.36108887 28.09628296 27.06225586 C29.63059083 31.66412631 30.87113891 36.2818214 32 41 C32.66 41 33.32 41 34 41 C34.24878906 39.74058594 34.49757813 38.48117188 34.75390625 37.18359375 C35.99169576 31.6173512 37.92339965 26.38785523 39.9375 21.0625 C42.55322461 14.09855786 44.93268322 7.14812039 47 0 C53.27 0 59.54 0 66 0 C65.30547303 3.47263484 64.58013419 6.51596538 63.4765625 9.8359375 C63.1775 10.73570313 62.8784375 11.63546875 62.5703125 12.5625 C62.25835937 13.490625 61.94640625 14.41875 61.625 15.375 C61.32078125 16.29539062 61.0165625 17.21578125 60.703125 18.1640625 C59.39840388 22.06707438 58.08488804 25.92945183 56.4296875 29.69921875 C54.90122847 33.2280381 53.68727267 36.78054796 52.5 40.4375 C52.06335812 41.76200195 51.62586647 43.08622408 51.1875 44.41015625 C50.795625 45.59480469 50.40375 46.77945313 50 48 C45.0777951 62.74295026 45.0777951 62.74295026 39.1875 67.0625 C35.27479201 68.21329647 32.03025344 68.8221717 28 68 C17.61650073 62.00951965 15.17585759 45.10929212 11.4375 34.375 C10.56872241 31.8850365 9.69928501 29.39530683 8.82887268 26.90591431 C8.29130959 25.36801324 7.75472867 23.82976835 7.21934509 22.29110718 C5.21218901 16.54180471 3.1818776 10.79918378 0.8125 5.1875 C0 3 0 3 0 0 Z " fill="#F6F8F8" transform="translate(237,24)"/>
<path d="M0 0 C18.81 0 37.62 0 57 0 C57 5.61 57 11.22 57 17 C50.4 17 43.8 17 37 17 C37 33.5 37 50 37 67 C31.06 67 25.12 67 19 67 C19 50.5 19 34 19 17 C12.73 17 6.46 17 0 17 C0 11.39 0 5.78 0 0 Z " fill="#F5F7F8" transform="translate(368,24)"/>
<path d="M0 0 C6.93 0 13.86 0 21 0 C21 0.66 21 1.32 21 2 C21.763125 2.226875 22.52625 2.45375 23.3125 2.6875 C26.66375338 4.32415863 27.38412676 5.67324073 29 9 C29.36076355 11.80317688 29.36076355 11.80317688 29.34057617 14.8918457 C29.34034958 16.05267166 29.34012299 17.21349762 29.33988953 18.40950012 C29.32440567 19.65237289 29.30892181 20.89524567 29.29296875 22.17578125 C29.28872391 23.45607712 29.28447906 24.73637299 29.28010559 26.0554657 C29.26869137 29.44713133 29.23925455 32.83840707 29.20599365 36.22991943 C29.17521835 39.69554369 29.16158439 43.16123139 29.14648438 46.62695312 C29.11342181 53.41815911 29.06164157 60.20899571 29 67 C23.06 67 17.12 67 11 67 C11 50.5 11 34 11 17 C7.37 17 3.74 17 0 17 C0 11.39 0 5.78 0 0 Z " fill="#35BAAC" transform="translate(631,24)"/>
<path d="M0 0 C5.94 0 11.88 0 18 0 C18 22.11 18 44.22 18 67 C12.06 67 6.12 67 0 67 C0 44.89 0 22.78 0 0 Z " fill="#F7F8F9" transform="translate(10,24)"/>
<path d="M0 0 C3.27456448 1.46310328 5.70781266 3.24921484 8 6 C8.38818359 8.09716797 8.38818359 8.09716797 8.3984375 10.4921875 C8.40423828 11.79736328 8.40423828 11.79736328 8.41015625 13.12890625 C8.39855469 14.03511719 8.38695312 14.94132812 8.375 15.875 C8.38660156 16.77347656 8.39820313 17.67195313 8.41015625 18.59765625 C8.38845392 23.49514911 8.2928013 27.08531371 5 31 C2.8125 31.8125 2.8125 31.8125 1 32 C1 32.66 1 33.32 1 34 C-3.70699441 34.47069944 -7.61007379 34.85562871 -11.4375 31.75 C-15.98671076 26.86792016 -16.34055028 23.13187489 -16.3125 16.5625 C-16.32861328 15.81162109 -16.34472656 15.06074219 -16.36132812 14.28710938 C-16.36538533 9.67406813 -15.92020983 6.76823329 -13 3 C-12.54367188 2.40960938 -12.08734375 1.81921875 -11.6171875 1.2109375 C-8.31240229 -1.26366012 -3.91714462 -0.47005735 0 0 Z " fill="#133A5C" transform="translate(209,41)"/>
<path d="M0 0 C-1.59752781 3.98704286 -4.39055654 6.6301689 -7.41015625 9.5703125 C-7.93765976 10.09261444 -8.46516327 10.61491638 -9.00865173 11.15304565 C-10.6885713 12.81520334 -12.37504272 14.47049805 -14.0625 16.125 C-15.75263016 17.78750973 -17.4412772 19.45145954 -19.12705994 21.11837769 C-20.17490971 22.1539722 -21.22542114 23.18688183 -22.27882385 24.21682739 C-24.98361429 26.84590314 -24.98361429 26.84590314 -27 30 C-31.25314786 28.32357676 -34.12101814 25.2824091 -37.3125 22.125 C-37.87517578 21.59519531 -38.43785156 21.06539062 -39.01757812 20.51953125 C-40.61328125 18.9453125 -40.61328125 18.9453125 -43 16 C-42.32306242 10.52149724 -38.59479719 6.13313282 -34.62890625 2.53125 C-25.82666207 -3.56794282 -10.15900695 -0.75466909 0 0 Z " fill="#36B8A9" transform="translate(595,10)"/>
<path d="M0 0 C2.05887573 1.04952838 3.32339295 2.09839275 4.89208984 3.79248047 C5.42060547 4.36224609 5.94912109 4.93201172 6.49365234 5.51904297 C7.03248047 6.11716797 7.57130859 6.71529297 8.12646484 7.33154297 C8.95791016 8.21712891 8.95791016 8.21712891 9.80615234 9.12060547 C13.87646484 13.57188318 13.87646484 13.57188318 13.87646484 16.95654297 C12.30224609 18.60498047 12.30224609 18.60498047 10.18896484 20.33154297 C7.78058465 22.31811646 5.71291409 24.15029361 3.69091797 26.5456543 C0.09773615 29.62360975 -1.71836322 29.54101153 -6.39306641 29.44482422 C-7.07406906 29.43774948 -7.75507172 29.43067474 -8.45671082 29.42338562 C-10.61763511 29.39554365 -12.77590338 29.33283823 -14.93603516 29.26904297 C-16.40670067 29.24394629 -17.87740709 29.2211355 -19.34814453 29.20068359 C-22.94079473 29.14575485 -26.53190544 29.05955944 -30.12353516 28.95654297 C-25.20022264 23.01518956 -19.91166 17.46073862 -14.49121094 11.97412109 C-13.48715879 10.95331832 -12.48852885 9.92715675 -11.49511719 8.89599609 C-10.04718315 7.39359284 -8.58373825 5.90804773 -7.11572266 4.42529297 C-6.25317871 3.54292969 -5.39063477 2.66056641 -4.50195312 1.75146484 C-2.12353516 -0.04345703 -2.12353516 -0.04345703 0 0 Z " fill="#36BAAB" transform="translate(521.12353515625,62.04345703125)"/>
<path d="M0 0 C3.11136437 1.31921849 5.45172016 2.90344031 7 6 C7.29259649 9.4308452 7.27791989 12.87062655 7.3125 16.3125 C7.34150391 17.26318359 7.37050781 18.21386719 7.40039062 19.19335938 C7.44076288 23.63741318 7.4611984 26.24401499 5.10546875 30.10546875 C1.2047717 33.61537241 -2.20041626 33.38884065 -7.29296875 33.35546875 C-10 33 -10 33 -13.125 30.6875 C-16.29175922 26.14847845 -16.213656 22.0346106 -16.25 16.6875 C-16.270625 15.94048828 -16.29125 15.19347656 -16.3125 14.42382812 C-16.3467609 9.54593285 -15.72603121 6.21006222 -13 2 C-8.75093123 -0.83271251 -4.99002089 -0.65087229 0 0 Z " fill="#0D3859" transform="translate(729,41)"/>
<path d="M0 0 C2.37985056 1.85099488 3.72722647 3.14696833 5.25 5.75 C5.64853734 10.44742683 5.38120849 15.02649444 5.25 19.75 C-2.34 19.75 -9.93 19.75 -17.75 19.75 C-18.15805604 5.19600117 -18.15805604 5.19600117 -14.75 0.75 C-10.04396088 -1.99518949 -4.95603192 -2.25274178 0 0 Z " fill="#1A4061" transform="translate(340.75,42.25)"/>
<path d="M0 0 C5.94 0 11.88 0 18 0 C18 5.94 18 11.88 18 18 C12.06 18 6.12 18 0 18 C0 12.06 0 6.12 0 0 Z " fill="#34B7A9" transform="translate(671,73)"/>
<path d="M0 0 C0.66 0.33 1.32 0.66 2 1 C-1.3 4.3 -4.6 7.6 -8 11 C-8 6.67750434 -5.85084926 5.11604454 -3 2 C-2.01 1.34 -1.02 0.68 0 0 Z " fill="#CDD6DD" transform="translate(318,27)"/>
</svg>
