<svg width="132" height="49" viewBox="0 0 132 49" fill="none" xmlns="http://www.w3.org/2000/svg">
<path d="M1.17893 5.59707H9.03844V19.587H14.9724V19.0761L10.6496 18.6046V5.59707H18.5092V39H10.6496V26.6606H4.71571V27.1714L9.03844 27.6823V39H1.17893V5.59707ZM43.3535 39H35.2582L34.3544 34.9524H28.3418L27.3987 39H19.3034L27.2808 5.59707H35.3761L43.3535 39ZM30.9748 23.8311L30.0316 27.8788H32.7825L29.0885 11.4524H28.5776L30.9748 23.8311ZM52.6004 39.6288C49.509 39.6288 47.2952 39.1703 45.9591 38.2533C44.623 37.3364 43.9549 35.83 43.9549 33.7341V10.8629C43.9549 8.76708 44.623 7.26067 45.9591 6.34373C47.2952 5.42678 49.509 4.96831 52.6004 4.96831C55.6918 4.96831 57.9056 5.42678 59.2417 6.34373C60.604 7.26067 61.2852 8.76708 61.2852 10.8629V18.2509H53.4256V11.9633C53.4256 11.5965 53.3602 11.3345 53.2292 11.1773C53.0982 10.9939 52.8886 10.9022 52.6004 10.9022C52.3122 10.9022 52.1026 10.9939 51.9716 11.1773C51.8668 11.3345 51.8144 11.5965 51.8144 11.9633V33.1054C51.8144 33.4721 51.8668 33.7472 51.9716 33.9306C52.1026 34.0878 52.3122 34.1664 52.6004 34.1664C52.8886 34.1664 53.0982 34.0878 53.2292 33.9306C53.3602 33.7472 53.4256 33.4721 53.4256 33.1054V26.8178H61.2852V33.7341C61.2852 35.83 60.604 37.3364 59.2417 38.2533C57.9056 39.1703 55.6918 39.6288 52.6004 39.6288ZM63.0419 5.59707H70.9014V19.3119L73.2199 5.59707H81.7868L76.3638 22.3378L81.7868 39H73.2199L69.6832 24.0669H69.1723L70.9014 31.73V39H63.0419V5.59707Z" fill="#FFFFF1"/>
<path d="M81.8027 5.84302H93.2183L100.847 19.2361L112.262 39.2782H100.847L93.2183 25.8851L81.8027 5.84302Z" fill="#FFFFF1"/>
<path fill-rule="evenodd" clip-rule="evenodd" d="M93.2183 39.2782H81.8027L93.2183 25.8851V39.2782Z" fill="#FFFFF1"/>
<path fill-rule="evenodd" clip-rule="evenodd" d="M100.847 5.84302H112.262L100.847 19.2361V5.84302Z" fill="#FFFFF1"/>
<path d="M115.225 34.2874V31.5855H115.781C115.871 31.5855 115.951 31.5305 116.021 31.4204C116.091 31.3103 116.126 31.1652 116.126 30.9851V29.8893C116.126 29.7092 116.091 29.5641 116.021 29.454C115.951 29.3439 115.871 29.2889 115.781 29.2889C115.55 29.2889 115.435 29.424 115.435 29.6942V31.0151H112.433V28.5984C112.433 27.7979 112.688 27.2225 113.199 26.8722C113.719 26.522 114.57 26.3468 115.75 26.3468C116.961 26.3468 117.827 26.512 118.347 26.8422C118.868 27.1724 119.128 27.7228 119.128 28.4933V30.6248C119.128 31.3554 118.978 31.8857 118.678 32.216C118.377 32.5462 117.882 32.7313 117.191 32.7713V32.7864C117.932 32.7864 118.462 32.9515 118.783 33.2817C119.113 33.6019 119.278 34.1373 119.278 34.8878V37.4396C119.278 38.2102 119.013 38.7605 118.482 39.0908C117.952 39.421 117.076 39.5861 115.856 39.5861C114.635 39.5861 113.759 39.411 113.229 39.0607C112.698 38.7105 112.433 38.1351 112.433 37.3345V34.9178H115.435V36.2388C115.435 36.3789 115.465 36.4839 115.525 36.554C115.595 36.614 115.705 36.6441 115.856 36.6441C116.006 36.6441 116.111 36.599 116.171 36.509C116.241 36.4189 116.276 36.2638 116.276 36.0436V34.8878C116.276 34.6977 116.231 34.5526 116.141 34.4525C116.061 34.3424 115.941 34.2874 115.781 34.2874H115.225ZM119.958 36.2388H123.066V39.3459H119.958V36.2388ZM127.037 39.5861C125.857 39.5861 125.011 39.411 124.501 39.0607C123.99 38.7105 123.735 38.1351 123.735 37.3345V28.5984C123.735 27.7979 123.99 27.2225 124.501 26.8722C125.011 26.522 125.857 26.3468 127.037 26.3468C128.218 26.3468 129.064 26.522 129.574 26.8722C130.094 27.2225 130.355 27.7979 130.355 28.5984V37.3345C130.355 38.1351 130.094 38.7105 129.574 39.0607C129.064 39.411 128.218 39.5861 127.037 39.5861ZM126.737 37.2295C126.737 37.3696 126.757 37.4746 126.797 37.5447C126.847 37.6047 126.927 37.6347 127.037 37.6347C127.147 37.6347 127.227 37.6047 127.278 37.5447C127.328 37.4746 127.353 37.3696 127.353 37.2295V28.7035C127.353 28.5634 127.328 28.4633 127.278 28.4033C127.227 28.3332 127.147 28.2982 127.037 28.2982C126.927 28.2982 126.847 28.3332 126.797 28.4033C126.757 28.4633 126.737 28.5634 126.737 28.7035V37.2295Z" fill="#FFFFF1"/>
</svg>
