<svg width="15" height="15" viewBox="0 0 15 15" fill="none" xmlns="http://www.w3.org/2000/svg">
<g clip-path="url(#clip0_342_722)">
<path d="M10.4238 1.22595L4.29199 1.22595C2.59873 1.22595 1.22607 2.59861 1.22607 4.29187L1.22607 10.4237C1.22607 12.117 2.59873 13.4896 4.29199 13.4896L10.4238 13.4896C12.1171 13.4896 13.4898 12.117 13.4898 10.4237L13.4898 4.29187C13.4898 2.59861 12.1171 1.22595 10.4238 1.22595Z" stroke="#FEFDE0" stroke-width="1.22637" stroke-linecap="round" stroke-linejoin="round"/>
<path d="M9.81107 6.9715C9.88675 7.48182 9.79958 8.00301 9.56197 8.46094C9.32437 8.91886 8.94841 9.29021 8.48759 9.52215C8.02677 9.75409 7.50455 9.83483 6.9952 9.75287C6.48585 9.6709 6.01532 9.43042 5.65052 9.06563C5.28572 8.70083 5.04524 8.23029 4.96328 7.72095C4.88132 7.2116 4.96205 6.68937 5.194 6.22855C5.42594 5.76773 5.79729 5.39178 6.25521 5.15417C6.71314 4.91657 7.23432 4.8294 7.74464 4.90507C8.26519 4.98226 8.74711 5.22483 9.11922 5.59693C9.49132 5.96904 9.73388 6.45096 9.81107 6.9715Z" stroke="#FEFDE0" stroke-width="1.22637" stroke-linecap="round" stroke-linejoin="round"/>
<path d="M10.731 3.98572H10.7379" stroke="#FEFDE0" stroke-width="1.22637" stroke-linecap="round" stroke-linejoin="round"/>
</g>
<defs>
<clipPath id="clip0_342_722">
<rect width="14.7164" height="14.7164" fill="white"/>
</clipPath>
</defs>
</svg>
