<svg width="29" height="29" viewBox="0 0 29 29" fill="none" xmlns="http://www.w3.org/2000/svg">
<path d="M19.3333 9.6665C21.2561 9.6665 23.1001 10.4303 24.4598 11.79C25.8194 13.1496 26.5833 14.9937 26.5833 16.9165V25.3748H21.7499V16.9165C21.7499 16.2756 21.4953 15.6609 21.0421 15.2077C20.5889 14.7544 19.9742 14.4998 19.3333 14.4998C18.6923 14.4998 18.0776 14.7544 17.6244 15.2077C17.1712 15.6609 16.9166 16.2756 16.9166 16.9165V25.3748H12.0833V16.9165C12.0833 14.9937 12.8471 13.1496 14.2067 11.79C15.5664 10.4303 17.4104 9.6665 19.3333 9.6665Z" fill="#FFFFF1" stroke="#FFFFF1" stroke-linecap="round" stroke-linejoin="round"/>
<path d="M7.25008 10.875H2.41675V25.375H7.25008V10.875Z" fill="#FFFFF1" stroke="#FFFFF1" stroke-linecap="round" stroke-linejoin="round"/>
<path d="M4.83341 7.24984C6.1681 7.24984 7.25008 6.16786 7.25008 4.83317C7.25008 3.49848 6.1681 2.4165 4.83341 2.4165C3.49873 2.4165 2.41675 3.49848 2.41675 4.83317C2.41675 6.16786 3.49873 7.24984 4.83341 7.24984Z" fill="#FFFFF1" stroke="#FFFFF1" stroke-linecap="round" stroke-linejoin="round"/>
</svg>
