<svg width="128" height="127" viewBox="0 0 128 127" fill="none" xmlns="http://www.w3.org/2000/svg">
    <mask id="mask0_78_737" style="mask-type:alpha" maskUnits="userSpaceOnUse" x="0" y="0" width="128" height="127">
        <rect x="0.950134" width="127" height="127" fill="#01BAD5"/>
    </mask>
    <g mask="url(#mask0_78_737)">
        <path d="M64.4502 110.819C62.3268 110.819 60.4492 110.259 58.8176 109.14C57.1861 108.02 56.0447 106.552 55.3934 104.733H53.8669C51.7028 104.733 49.8389 103.952 48.2752 102.388C46.7114 100.824 45.9295 98.9603 45.9295 96.7962V79.4355C40.5904 76.1995 36.3893 71.861 33.3262 66.42C30.2631 60.9791 28.7316 55.1549 28.7316 48.9474C28.7316 38.9883 32.1949 30.5455 39.1215 23.6187C46.0482 16.6921 54.4911 13.2288 64.4502 13.2288C74.4093 13.2288 82.8522 16.6921 89.7789 23.6187C96.7055 30.5455 100.169 38.9883 100.169 48.9474C100.169 55.2635 98.6373 61.1148 95.5742 66.5015C92.5111 71.8881 88.31 76.1995 82.9709 79.4355V96.7962C82.9709 98.9603 82.189 100.824 80.6253 102.388C79.0616 103.952 77.1977 104.733 75.0336 104.733H73.507C72.8557 106.552 71.7143 108.02 70.0828 109.14C68.4512 110.259 66.5737 110.819 64.4502 110.819ZM53.8669 96.7962H75.0336V91.8301H53.8669V96.7962ZM53.8669 87.149H75.0336V82.0202H53.8669V87.149ZM52.8085 74.0829H61.2956V58.6759L49.9593 47.3396L54.3961 42.9028L64.4502 52.9569L74.5044 42.9028L78.9412 47.3396L67.6048 58.6759V74.0829H76.0919C80.8544 71.7898 84.7349 68.4164 87.7336 63.9626C90.7322 59.5087 92.2315 54.5037 92.2315 48.9474C92.2315 41.1863 89.5415 34.6158 84.1617 29.236C78.7818 23.8561 72.2113 21.1662 64.4502 21.1662C56.6891 21.1662 50.1186 23.8561 44.7388 29.236C39.3589 34.6158 36.669 41.1863 36.669 48.9474C36.669 54.5037 38.1683 59.5087 41.1669 63.9626C44.1655 68.4164 48.046 71.7898 52.8085 74.0829Z" fill="#FEFDE0"/>
    </g>
</svg>
