<svg width="15" height="15" viewBox="0 0 15 15" fill="none" xmlns="http://www.w3.org/2000/svg">
<path d="M11.9997 10.3422V12.1487C12.0003 12.3164 11.9687 12.4824 11.907 12.6361C11.8453 12.7897 11.7548 12.9276 11.6413 13.041C11.5278 13.1544 11.3938 13.2407 11.2479 13.2944C11.102 13.3482 10.9474 13.3681 10.794 13.353C9.09204 13.1517 7.45724 12.5185 6.0209 11.5044C4.68457 10.5799 3.55159 9.34634 2.70244 7.89142C1.76772 6.3205 1.18603 4.53196 1.00449 2.67068C0.990668 2.50416 1.00884 2.33634 1.05786 2.17789C1.10688 2.01944 1.18566 1.87383 1.28919 1.75035C1.39273 1.62687 1.51874 1.52821 1.65922 1.46065C1.79969 1.3931 1.95155 1.35813 2.10511 1.35797H3.76434C4.03276 1.35509 4.29297 1.45858 4.49649 1.64913C4.7 1.83969 4.83293 2.10432 4.8705 2.39369C4.94053 2.9718 5.07041 3.53943 5.25765 4.08576C5.33206 4.30129 5.34817 4.53552 5.30406 4.76071C5.25995 4.9859 5.15747 5.1926 5.00877 5.35632L4.30636 6.12106C5.09369 7.6286 6.24017 8.87682 7.62482 9.73403L8.32723 8.96929C8.4776 8.80739 8.66746 8.69582 8.87429 8.64779C9.08112 8.59976 9.29626 8.6173 9.49422 8.69831C9.99601 8.90218 10.5174 9.04358 11.0484 9.11983C11.317 9.16109 11.5624 9.30843 11.7378 9.53381C11.9132 9.75919 12.0064 10.0469 11.9997 10.3422Z" stroke="#FEFDE0" stroke-linecap="round" stroke-linejoin="round"/>
</svg>
