<svg width="87" height="88" viewBox="0 0 87 88" fill="none" xmlns="http://www.w3.org/2000/svg">
    <path d="M57.7853 21.225C58.0062 21.1813 58.2357 21.2235 58.4258 21.3403C58.7511 21.4749 58.9806 21.795 58.982 22.1695L59.1707 48.3688C59.1857 48.6904 59.0292 49.0098 58.7339 49.1859L48.053 55.5682C47.9022 55.6828 47.7135 55.7501 47.5104 55.7501C47.4611 55.7501 47.4118 55.7472 47.3646 55.7386L19.6468 52.6513C19.17 52.6277 18.7904 52.2317 18.7904 51.7476V25.1057H18.7919C18.7811 24.7491 18.9834 24.4046 19.3294 24.2528L33.2337 18.1298L33.2344 18.1312C33.3796 18.0668 33.544 18.041 33.7127 18.0625L57.7853 21.225ZM38.3265 0C48.8987 0 58.4873 4.30973 65.433 11.2391C72.3787 18.1971 76.6522 27.7741 76.6522 38.3937C76.6522 46.1402 74.346 53.3804 70.41 59.4074L87 77.5207L75.5556 88L59.5568 70.3665C53.4825 74.4227 46.1715 76.7881 38.3272 76.7881C27.7542 76.7881 18.1656 72.4784 11.2206 65.5497C4.27422 58.5903 0 49.0133 0 38.3937C0 27.802 4.30282 18.1971 11.2199 11.2391C18.1649 4.2818 27.7256 0 38.3265 0ZM62.3962 14.2813C56.2383 8.11243 47.7185 4.28109 38.3265 4.28109C28.9345 4.28109 20.4146 8.11243 14.2567 14.2813C8.09879 20.4501 4.27422 28.9858 4.27422 38.3937C4.27422 47.8023 8.09808 56.3373 14.256 62.5068C20.4139 68.675 28.9345 72.5063 38.3258 72.5063C47.717 72.5063 56.2376 68.675 62.3955 62.5068C68.5534 56.3373 72.378 47.8023 72.378 38.3937C72.3787 28.9858 68.5541 20.4508 62.3962 14.2813ZM48.7357 28.8783V52.6084L57.0468 47.9033L56.8724 23.9799L48.7357 28.8783ZM45.9613 52.8683V29.1304L34.7878 27.9438L34.4004 39.2602L30.2498 36.4286L26.0993 38.7783L26.9557 26.9419L21.241 26.1291V50.2945L45.9613 52.8683ZM44.7389 21.3281L36.3441 25.9622L47.6842 27.4117L55.309 22.7167L44.7389 21.3281ZM28.389 24.9453L36.5193 20.2481L33.732 19.8822L23.3006 24.2943L28.389 24.9453Z" fill="#FEFDE0"/>
</svg>
