<svg width="26" height="26" viewBox="0 0 26 26" fill="none" xmlns="http://www.w3.org/2000/svg">
<g clip-path="url(#clip0_318_277)">
<path d="M20.9486 17.3458C21.2975 17.0144 21.5753 16.6155 21.7653 16.1733C21.9551 15.7311 22.0532 15.2549 22.0532 14.7736C22.0532 14.2924 21.9551 13.8162 21.7653 13.374C21.5753 12.9318 21.2975 12.5329 20.9486 12.2015C20.2343 11.5235 19.287 11.1456 18.3021 11.1456C17.3173 11.1456 16.37 11.5235 15.6557 12.2015L13 14.8572L10.3443 12.2015C9.62995 11.5235 8.68268 11.1456 7.69785 11.1456C6.71301 11.1456 5.76574 11.5235 5.05142 12.2015C4.70245 12.5329 4.42458 12.9318 4.23469 13.374C4.0448 13.8162 3.94687 14.2924 3.94687 14.7736C3.94687 15.2549 4.0448 15.7311 4.23469 16.1733C4.42458 16.6155 4.70245 17.0144 5.05142 17.3458L13 25.0714L20.9486 17.3458Z" stroke="#FFFFF1" stroke-width="2.42857" stroke-linecap="round" stroke-linejoin="round"/>
<path d="M13 8.35716C15.0513 8.35716 16.7143 6.69422 16.7143 4.64287C16.7143 2.59153 15.0513 0.928589 13 0.928589C10.9486 0.928589 9.28571 2.59153 9.28571 4.64287C9.28571 6.69422 10.9486 8.35716 13 8.35716Z" stroke="#FFFFF1" stroke-width="2.42857" stroke-linecap="round" stroke-linejoin="round"/>
</g>
<defs>
<clipPath id="clip0_318_277">
<rect width="26" height="26" fill="white"/>
</clipPath>
</defs>
</svg>
