<svg width="26" height="26" viewBox="0 0 26 26" fill="none" xmlns="http://www.w3.org/2000/svg">
<g clip-path="url(#clip0_1397_448)">
<path d="M2.78585 3.71426C2.2933 3.71426 1.82094 3.90993 1.47266 4.2582C1.12437 4.60649 0.928711 5.07886 0.928711 5.57141V23.2143C0.928711 23.7068 1.12437 24.1792 1.47266 24.5274C1.82094 24.8757 2.2933 25.0714 2.78585 25.0714H23.2144C23.7069 25.0714 24.1794 24.8757 24.5276 24.5274C24.8758 24.1792 25.0716 23.7068 25.0716 23.2143V5.57141C25.0716 5.07886 24.8758 4.60649 24.5276 4.2582C24.1794 3.90993 23.7069 3.71426 23.2144 3.71426H19.5001" stroke="#1F2333" stroke-width="2.42857" stroke-linecap="round" stroke-linejoin="round"/>
<path d="M0.928711 10.2143H25.0716" stroke="#1F2333" stroke-width="2.42857" stroke-linecap="round" stroke-linejoin="round"/>
<path d="M6.5 0.928589V6.50002" stroke="#1F2333" stroke-width="2.42857" stroke-linecap="round" stroke-linejoin="round"/>
<path d="M19.5 0.928589V6.50002" stroke="#1F2333" stroke-width="2.42857" stroke-linecap="round" stroke-linejoin="round"/>
<path d="M6.5 3.71426H15.7857" stroke="#1F2333" stroke-width="2.42857" stroke-linecap="round" stroke-linejoin="round"/>
</g>
<defs>
<clipPath id="clip0_1397_448">
<rect width="26" height="26" fill="white"/>
</clipPath>
</defs>
</svg>
