<svg width="26" height="26" viewBox="0 0 26 26" fill="none" xmlns="http://www.w3.org/2000/svg">
<path d="M23.4713 17.8414V21.2277C23.4725 21.5421 23.4109 21.8532 23.2905 22.1413C23.17 22.4293 22.9933 22.6879 22.7718 22.9004C22.5502 23.1129 22.2887 23.2747 22.0038 23.3754C21.719 23.4762 21.4172 23.5136 21.1178 23.4853C17.7956 23.1078 14.6045 21.9209 11.8008 20.0199C9.19226 18.2869 6.9807 15.9746 5.32315 13.2473C3.49859 10.3026 2.36314 6.94986 2.00876 3.46083C1.98178 3.14869 2.01726 2.83409 2.11295 2.53707C2.20863 2.24005 2.36241 1.96712 2.56451 1.73564C2.7666 1.50417 3.01258 1.31922 3.28679 1.19259C3.56099 1.06596 3.85741 1.0004 4.15717 1.00011H7.39599C7.91992 0.994718 8.42786 1.1887 8.82512 1.54591C9.22239 1.90311 9.48186 2.39916 9.55519 2.9416C9.6919 4.0253 9.94542 5.08934 10.3109 6.11345C10.4562 6.51746 10.4876 6.95655 10.4015 7.37867C10.3154 7.80079 10.1154 8.18826 9.82509 8.49516L8.454 9.9287C9.99087 12.7546 12.2288 15.0945 14.9316 16.7013L16.3027 15.2678C16.5962 14.9643 16.9668 14.7552 17.3706 14.6651C17.7743 14.5751 18.1943 14.608 18.5807 14.7598C19.5602 15.142 20.5779 15.4071 21.6144 15.55C22.1388 15.6273 22.6178 15.9035 22.9601 16.326C23.3025 16.7485 23.4844 17.2878 23.4713 17.8414Z" fill="#FFFFF1"/>
</svg>
