<svg width="26" height="26" viewBox="0 0 26 26" fill="none" xmlns="http://www.w3.org/2000/svg">
<g clip-path="url(#clip0_318_288)">
<path d="M20.3125 5.68756V4.62806C20.3141 4.34196 20.2593 4.05836 20.1513 3.79344C20.0432 3.52852 19.884 3.28748 19.6829 3.08407C19.4817 2.88067 19.2424 2.71888 18.9787 2.60795C18.7149 2.49701 18.4319 2.43912 18.1458 2.43756H2.9792C2.6931 2.43912 2.41011 2.49701 2.1464 2.60795C1.88267 2.71888 1.64338 2.88067 1.44219 3.08407C1.24099 3.28748 1.08184 3.52852 0.973799 3.79344C0.865762 4.05836 0.810964 4.34196 0.812533 4.62806V14.8721C0.810964 15.1582 0.865762 15.4418 0.973799 15.7067C1.08184 15.9716 1.24099 16.2127 1.44219 16.416C1.64338 16.6195 1.88267 16.7812 2.1464 16.8922C2.41011 17.0031 2.6931 17.061 2.9792 17.0626" stroke="#FFFFF1" stroke-width="2.125" stroke-linecap="round" stroke-linejoin="round"/>
<path d="M12.2839 23.5624L17.0928 16.7298C17.2341 16.528 17.4194 16.3611 17.6348 16.2415C17.8501 16.1218 18.0898 16.0526 18.3358 16.0393C18.5818 16.026 18.8276 16.0687 19.0545 16.1643C19.2816 16.2599 19.484 16.4059 19.6462 16.5912L24.9957 22.7044" stroke="#FFFFF1" stroke-width="2.125" stroke-linecap="round" stroke-linejoin="round"/>
<path d="M11.7813 14.625C11.5569 14.625 11.375 14.4431 11.375 14.2188C11.375 13.9944 11.5569 13.8125 11.7813 13.8125" stroke="#FFFFF1" stroke-width="2.125"/>
<path d="M11.7812 14.625C12.0056 14.625 12.1875 14.4431 12.1875 14.2188C12.1875 13.9944 12.0056 13.8125 11.7812 13.8125" stroke="#FFFFF1" stroke-width="2.125"/>
<path d="M24.1042 8.93756H7.58333C6.98503 8.93756 6.5 9.42259 6.5 10.0209V22.4792C6.5 23.0776 6.98503 23.5626 7.58333 23.5626H24.1042C24.7025 23.5626 25.1875 23.0776 25.1875 22.4792V10.0209C25.1875 9.42259 24.7025 8.93756 24.1042 8.93756Z" stroke="#FFFFF1" stroke-width="2.125" stroke-linecap="round" stroke-linejoin="round"/>
</g>
<defs>
<clipPath id="clip0_318_288">
<rect width="26" height="26" fill="white"/>
</clipPath>
</defs>
</svg>
