<svg width="26" height="26" viewBox="0 0 26 26" fill="none" xmlns="http://www.w3.org/2000/svg">
<g clip-path="url(#clip0_779_1969)">
<path d="M20.3125 5.6875V4.628C20.3141 4.3419 20.2593 4.0583 20.1513 3.79338C20.0432 3.52846 19.884 3.28742 19.6829 3.08401C19.4817 2.88061 19.2424 2.71882 18.9787 2.60789C18.7149 2.49695 18.4319 2.43906 18.1458 2.4375H2.9792C2.6931 2.43906 2.41011 2.49695 2.1464 2.60789C1.88267 2.71882 1.64338 2.88061 1.44219 3.08401C1.24099 3.28742 1.08184 3.52846 0.973799 3.79338C0.865762 4.0583 0.810964 4.3419 0.812533 4.628V14.872C0.810964 15.1581 0.865762 15.4417 0.973799 15.7066C1.08184 15.9716 1.24099 16.2126 1.44219 16.416C1.64338 16.6194 1.88267 16.7812 2.1464 16.8921C2.41011 17.003 2.6931 17.061 2.9792 17.0625" stroke="#1F2333" stroke-width="2.125" stroke-linecap="round" stroke-linejoin="round"/>
<path d="M12.2842 23.5623L17.0931 16.7298C17.2344 16.5279 17.4197 16.361 17.6351 16.2414C17.8503 16.1217 18.0901 16.0526 18.3361 16.0392C18.582 16.0259 18.8278 16.0686 19.0548 16.1643C19.2819 16.2598 19.4842 16.4058 19.6465 16.5911L24.996 22.7043" stroke="#1F2333" stroke-width="2.125" stroke-linecap="round" stroke-linejoin="round"/>
<path d="M11.7813 14.625C11.5569 14.625 11.375 14.4431 11.375 14.2188C11.375 13.9944 11.5569 13.8125 11.7813 13.8125" stroke="#1F2333" stroke-width="2.125"/>
<path d="M11.7812 14.625C12.0056 14.625 12.1875 14.4431 12.1875 14.2188C12.1875 13.9944 12.0056 13.8125 11.7812 13.8125" stroke="#1F2333" stroke-width="2.125"/>
<path d="M24.1042 8.9375H7.58333C6.98503 8.9375 6.5 9.42253 6.5 10.0208V22.4792C6.5 23.0775 6.98503 23.5625 7.58333 23.5625H24.1042C24.7025 23.5625 25.1875 23.0775 25.1875 22.4792V10.0208C25.1875 9.42253 24.7025 8.9375 24.1042 8.9375Z" stroke="#1F2333" stroke-width="2.125" stroke-linecap="round" stroke-linejoin="round"/>
</g>
<defs>
<clipPath id="clip0_779_1969">
<rect width="26" height="26" fill="white"/>
</clipPath>
</defs>
</svg>
