<svg width="26" height="26" viewBox="0 0 26 26" fill="none" xmlns="http://www.w3.org/2000/svg">
<g clip-path="url(#clip0_318_251)">
<path d="M4.06574 15.106V24.0435H10.5657V17.5435C10.5657 17.1124 10.737 16.6991 11.0417 16.3944C11.3464 16.0897 11.7598 15.9185 12.1908 15.9185H13.8158C14.2467 15.9185 14.66 16.0897 14.9648 16.3944C15.2696 16.6991 15.4408 17.1124 15.4408 17.5435V24.0435H21.9408V15.106" stroke="#1F2333" stroke-width="2.125" stroke-linecap="round" stroke-linejoin="round"/>
<path d="M0.815742 13.481L11.8538 2.4429C12.0047 2.2919 12.1839 2.1721 12.3811 2.09038C12.5784 2.00865 12.7897 1.96658 13.0033 1.96658C13.2168 1.96658 13.4281 2.00865 13.6253 2.09038C13.8226 2.1721 14.0018 2.2919 14.1527 2.4429L25.1908 13.481" stroke="#1F2333" stroke-width="2.125" stroke-linecap="round" stroke-linejoin="round"/>
</g>
<defs>
<clipPath id="clip0_318_251">
<rect width="26" height="26" fill="white"/>
</clipPath>
</defs>
</svg>
