<svg width="26" height="26" viewBox="0 0 26 26" fill="none" xmlns="http://www.w3.org/2000/svg">
<g clip-path="url(#clip0_318_262)">
<path d="M13 25.0714C19.6669 25.0714 25.0714 19.667 25.0714 13C25.0714 6.33315 19.6669 0.928589 13 0.928589C6.33311 0.928589 0.928543 6.33315 0.928543 13C0.928543 19.667 6.33311 25.0714 13 25.0714Z" stroke="#FFFFF1" stroke-width="2.42857" stroke-linecap="round" stroke-linejoin="round"/>
<path d="M10.2142 18.5714H15.7857" stroke="#FFFFF1" stroke-width="2.42857" stroke-linecap="round" stroke-linejoin="round"/>
<path d="M13 18.5714V12.0714H11.1429" stroke="#FFFFF1" stroke-width="2.42857" stroke-linecap="round" stroke-linejoin="round"/>
<path d="M13 7.89287C12.7436 7.89287 12.5357 7.685 12.5357 7.42858C12.5357 7.17216 12.7436 6.96429 13 6.96429" stroke="#FFFFF1" stroke-width="2.42857" stroke-linecap="round" stroke-linejoin="round"/>
<path d="M13 7.89287C13.2564 7.89287 13.4643 7.685 13.4643 7.42858C13.4643 7.17216 13.2564 6.96429 13 6.96429" stroke="#FFFFF1" stroke-width="2.42857" stroke-linecap="round" stroke-linejoin="round"/>
</g>
<defs>
<clipPath id="clip0_318_262">
<rect width="26" height="26" fill="white"/>
</clipPath>
</defs>
</svg>
