<svg width="26" height="26" viewBox="0 0 26 26" fill="none" xmlns="http://www.w3.org/2000/svg">
<g clip-path="url(#clip0_370_288)">
<path d="M13 25.0714C19.667 25.0714 25.0714 19.667 25.0714 13C25.0714 6.33315 19.667 0.928589 13 0.928589C6.33315 0.928589 0.928589 6.33315 0.928589 13C0.928589 19.667 6.33315 25.0714 13 25.0714Z" stroke="#1F2333" stroke-width="2.42857" stroke-linecap="round" stroke-linejoin="round"/>
<path d="M10.2144 18.5714H15.7858" stroke="#1F2333" stroke-width="2.42857" stroke-linecap="round" stroke-linejoin="round"/>
<path d="M13.0001 18.5714V12.0714H11.1429" stroke="#1F2333" stroke-width="2.42857" stroke-linecap="round" stroke-linejoin="round"/>
<path d="M13.0001 7.89287C12.7436 7.89287 12.5358 7.685 12.5358 7.42858C12.5358 7.17216 12.7436 6.96429 13.0001 6.96429" stroke="#1F2333" stroke-width="2.42857" stroke-linecap="round" stroke-linejoin="round"/>
<path d="M13.0001 7.89287C13.2565 7.89287 13.4644 7.685 13.4644 7.42858C13.4644 7.17216 13.2565 6.96429 13.0001 6.96429" stroke="#1F2333" stroke-width="2.42857" stroke-linecap="round" stroke-linejoin="round"/>
</g>
<defs>
<clipPath id="clip0_370_288">
<rect width="26" height="26" fill="white"/>
</clipPath>
</defs>
</svg>
