<svg width="26" height="26" viewBox="0 0 26 26" fill="none" xmlns="http://www.w3.org/2000/svg">
<g clip-path="url(#clip0_363_442)">
<path d="M2.4375 6.50006C2.4375 7.14653 2.6943 7.76651 3.15143 8.22363C3.60855 8.68076 4.22853 8.93756 4.875 8.93756C5.52147 8.93756 6.14145 8.68076 6.59857 8.22363C7.0557 7.76651 7.3125 7.14653 7.3125 6.50006C7.3125 5.85359 7.0557 5.23361 6.59857 4.77649C6.14145 4.31937 5.52147 4.06256 4.875 4.06256C4.22853 4.06256 3.60855 4.31937 3.15143 4.77649C2.6943 5.23361 2.4375 5.85359 2.4375 6.50006Z" stroke="#1F2333" stroke-width="2.125" stroke-linecap="round" stroke-linejoin="round"/>
<path d="M4.875 10.5626C3.79756 10.5626 2.76424 10.9906 2.00238 11.7524C1.24051 12.5143 0.8125 13.5476 0.8125 14.6251V17.0626H2.4375L3.25 23.5626H6.5" stroke="#1F2333" stroke-width="2.125" stroke-linecap="round" stroke-linejoin="round"/>
<path d="M18.6875 6.50006C18.6875 7.14653 18.9444 7.76651 19.4014 8.22363C19.8586 8.68076 20.4786 8.93756 21.125 8.93756C21.7714 8.93756 22.3914 8.68076 22.8486 8.22363C23.3056 7.76651 23.5625 7.14653 23.5625 6.50006C23.5625 5.85359 23.3056 5.23361 22.8486 4.77649C22.3914 4.31937 21.7714 4.06256 21.125 4.06256C20.4786 4.06256 19.8586 4.31937 19.4014 4.77649C18.9444 5.23361 18.6875 5.85359 18.6875 6.50006Z" stroke="#1F2333" stroke-width="2.125" stroke-linecap="round" stroke-linejoin="round"/>
<path d="M21.125 10.5626C22.2025 10.5626 23.2358 10.9906 23.9977 11.7524C24.7595 12.5143 25.1875 13.5476 25.1875 14.6251V17.0626H23.5625L22.75 23.5626H19.5" stroke="#1F2333" stroke-width="2.125" stroke-linecap="round" stroke-linejoin="round"/>
<path d="M9.75 4.06256C9.75 4.92452 10.0924 5.75116 10.7019 6.36066C11.3114 6.97015 12.1381 7.31256 13 7.31256C13.8619 7.31256 14.6886 6.97015 15.2981 6.36066C15.9076 5.75116 16.25 4.92452 16.25 4.06256C16.25 3.20061 15.9076 2.37396 15.2981 1.76446C14.6886 1.15497 13.8619 0.812561 13 0.812561C12.1381 0.812561 11.3114 1.15497 10.7019 1.76446C10.0924 2.37396 9.75 3.20061 9.75 4.06256Z" stroke="#1F2333" stroke-width="2.125" stroke-linecap="round" stroke-linejoin="round"/>
<path d="M18.6875 14.6251C18.6875 13.1166 18.0883 11.6701 17.0217 10.6034C15.955 9.53677 14.5084 8.93756 13 8.93756C11.4916 8.93756 10.0449 9.53677 8.97833 10.6034C7.91171 11.6701 7.3125 13.1166 7.3125 14.6251V17.0626H9.75L10.5625 25.1876H15.4375L16.25 17.0626H18.6875V14.6251Z" stroke="#1F2333" stroke-width="2.125" stroke-linecap="round" stroke-linejoin="round"/>
</g>
<defs>
<clipPath id="clip0_363_442">
<rect width="26" height="26" fill="white"/>
</clipPath>
</defs>
</svg>
